<svg width="794" height="741" viewBox="0 0 794 741" fill="none" xmlns="http://www.w3.org/2000/svg">
<rect x="76.6523" width="672.862" height="344.096" rx="10" fill="#DDEDED"/>
<rect x="94.1875" y="12.4241" width="642.903" height="281.772" rx="9.5" fill="#CFE2E1" stroke="#DDEDED"/>
<path d="M165.704 236.273H155.834C155.654 236.273 155.475 236.185 155.385 236.009L144.796 207.204C144.707 206.941 144.886 206.59 145.245 206.59H155.205C155.385 206.59 155.564 206.677 155.654 206.853L166.243 235.658C166.243 235.921 166.063 236.273 165.704 236.273Z" fill="#DDEDED"/>
<path d="M200.341 236.273H190.38C190.201 236.273 190.022 236.185 189.932 236.009L179.343 207.204C179.253 206.941 179.433 206.59 179.792 206.59H189.752C189.932 206.59 190.111 206.677 190.201 206.853L200.79 235.658C200.879 235.921 200.61 236.273 200.341 236.273Z" fill="#DDEDED"/>
<path d="M218.56 236.272H208.599C208.42 236.272 208.24 236.185 208.151 235.921L191.371 205.009C191.281 204.657 191.46 204.394 191.819 204.394H201.78C201.959 204.394 202.139 204.482 202.228 204.745L219.098 235.658C219.098 235.921 218.919 236.272 218.56 236.272Z" fill="#DDEDED"/>
<path d="M187.06 236.269H168.216C168.037 236.269 167.857 236.182 167.768 235.918L157.179 203.864C157.089 203.513 157.269 203.249 157.628 203.249H176.562C176.741 203.249 176.921 203.337 177.01 203.601L187.599 235.655C187.599 235.918 187.419 236.269 187.06 236.269Z" fill="#DDEDED"/>
<path d="M254.454 236.273H244.493C244.314 236.273 244.134 236.185 244.044 236.009L236.148 207.204C236.058 206.941 236.238 206.59 236.597 206.59H246.557C246.736 206.59 246.916 206.677 247.006 206.853L254.902 235.658C254.992 235.921 254.813 236.273 254.454 236.273Z" fill="#EFF5F9"/>
<path d="M241.259 236.269H222.325C222.146 236.269 221.966 236.093 221.876 235.918L213.98 202.634C213.89 202.283 214.07 201.932 214.429 201.932H233.362C233.542 201.932 233.721 202.107 233.811 202.283L241.708 235.567C241.797 235.918 241.528 236.269 241.259 236.269Z" fill="#DDEDED"/>
<path d="M270.603 236.273H260.642C260.463 236.273 260.283 236.185 260.193 236.009L249.605 207.204C249.515 206.941 249.695 206.59 250.054 206.59H260.014C260.193 206.59 260.373 206.677 260.463 206.853L271.051 235.658C271.141 235.921 270.962 236.273 270.603 236.273Z" fill="#DDEDED"/>
<path d="M300.751 236.273H290.791C290.611 236.273 290.432 236.185 290.342 236.009L279.753 207.204C279.664 206.941 279.843 206.59 280.202 206.59H290.162C290.342 206.59 290.521 206.677 290.611 206.853L301.2 235.658C301.289 235.921 301.02 236.273 300.751 236.273Z" fill="#DDEDED"/>
<path d="M323.458 236.272H313.498C313.318 236.272 313.139 236.185 313.049 235.921L296.269 205.009C296.179 204.657 296.359 204.394 296.718 204.394H306.678C306.858 204.394 307.037 204.482 307.127 204.745L323.997 235.658C323.997 235.921 323.728 236.272 323.458 236.272Z" fill="#DDEDED"/>
<path d="M418.664 123.688H411.395C411.216 123.688 411.126 123.6 411.126 123.424L398.832 100.943C398.743 100.679 398.922 100.503 399.102 100.503H406.37C406.55 100.503 406.639 100.591 406.639 100.767L418.933 123.336C419.023 123.424 418.933 123.688 418.664 123.688Z" fill="#DDEDED"/>
<path d="M426.56 123.685H420.906C420.817 123.685 420.727 123.597 420.637 123.509L411.036 105.945C410.946 105.77 411.125 105.594 411.305 105.594H416.958C417.048 105.594 417.137 105.682 417.227 105.77L426.829 123.334C426.919 123.509 426.739 123.685 426.56 123.685Z" fill="#DDEDED"/>
<path d="M283.794 236.272H272.039C271.949 236.272 271.77 236.185 271.77 236.009L265.219 205.887C265.129 205.623 265.309 205.272 265.488 205.272H277.244C277.333 205.272 277.513 205.36 277.513 205.536L284.063 235.658C284.153 235.921 283.974 236.272 283.794 236.272Z" fill="#DDEDED"/>
<path d="M407.983 236.273H417.944C418.123 236.273 418.303 236.185 418.392 236.009L428.981 207.204C429.071 206.941 428.891 206.59 428.532 206.59H418.572C418.392 206.59 418.213 206.677 418.123 206.853L407.535 235.658C407.445 235.921 407.624 236.273 407.983 236.273Z" fill="#DDEDED"/>
<path d="M424.856 236.272H436.611C436.7 236.272 436.88 236.185 436.88 236.009L443.431 205.887C443.52 205.623 443.341 205.272 443.161 205.272H431.406C431.316 205.272 431.137 205.36 431.137 205.536L424.586 235.658C424.497 235.921 424.676 236.272 424.856 236.272Z" fill="#DDEDED"/>
<path d="M359.352 236.273H349.392C349.212 236.273 349.033 236.185 348.943 236.009L341.046 207.204C340.957 206.941 341.136 206.59 341.495 206.59H351.455C351.635 206.59 351.814 206.677 351.904 206.853L359.801 235.658C359.89 235.921 359.711 236.273 359.352 236.273Z" fill="#DDEDED"/>
<path d="M346.071 236.269H327.138C326.958 236.269 326.779 236.093 326.689 235.918L318.792 202.634C318.703 202.283 318.882 201.932 319.241 201.932H338.175C338.354 201.932 338.534 202.107 338.624 202.283L346.52 235.567C346.61 235.918 346.43 236.269 346.071 236.269Z" fill="#DDEDED"/>
<path d="M401.255 236.274H367.784C367.156 236.274 366.707 235.835 366.707 235.22V221.344C366.707 220.73 367.156 220.291 367.784 220.291H401.255C401.883 220.291 402.331 220.73 402.331 221.344V235.22C402.331 235.835 401.883 236.274 401.255 236.274Z" fill="#DDEDED"/>
<path d="M404.127 219.237H371.374C371.015 219.237 370.746 218.973 370.746 218.622V213.353C370.746 213.001 371.015 212.738 371.374 212.738H404.127C404.486 212.738 404.755 213.001 404.755 213.353V218.622C404.755 218.973 404.486 219.237 404.127 219.237Z" fill="#EFF5F9"/>
<path d="M422.612 188.057H432.573C432.752 188.057 432.932 187.969 433.021 187.794L443.61 158.989C443.7 158.726 443.52 158.374 443.161 158.374H433.201C433.021 158.374 432.842 158.462 432.752 158.638L422.163 187.443C422.074 187.794 422.253 188.057 422.612 188.057Z" fill="#DDEDED"/>
<path d="M387.975 188.057H397.936C398.115 188.057 398.295 187.969 398.385 187.794L408.973 158.989C409.063 158.726 408.883 158.374 408.525 158.374H398.564C398.385 158.374 398.205 158.462 398.115 158.638L387.527 187.443C387.437 187.794 387.617 188.057 387.975 188.057Z" fill="#DDEDED"/>
<path d="M313.228 188.058H326.06C326.239 188.058 326.419 187.97 326.509 187.795L337.277 158.463C337.366 158.199 337.187 157.848 336.828 157.848H323.996C323.817 157.848 323.637 157.936 323.547 158.112L312.779 187.443C312.69 187.795 312.959 188.058 313.228 188.058Z" fill="#DDEDED"/>
<path d="M401.257 188.059H420.19C420.37 188.059 420.549 187.971 420.639 187.708L431.138 155.742C431.228 155.39 431.048 155.127 430.689 155.127H411.756C411.576 155.127 411.397 155.215 411.307 155.478L400.808 187.445C400.718 187.708 400.898 188.059 401.257 188.059Z" fill="#DDEDED"/>
<path d="M374.874 188.057H384.835C385.014 188.057 385.194 187.969 385.283 187.794L393.18 158.989C393.27 158.726 393.09 158.374 392.731 158.374H382.681C382.502 158.374 382.322 158.462 382.232 158.638L374.336 187.443C374.336 187.794 374.515 188.057 374.874 188.057Z" fill="#DDEDED"/>
<path d="M358.722 188.057H368.682C368.861 188.057 369.041 187.969 369.131 187.794L379.719 158.989C379.809 158.726 379.63 158.374 379.271 158.374H369.31C369.131 158.374 368.951 158.462 368.861 158.638L358.273 187.443C358.183 187.794 358.363 188.057 358.722 188.057Z" fill="#DDEDED"/>
<path d="M296.177 188.057H306.138C306.317 188.057 306.497 187.969 306.586 187.794L317.175 158.989C317.265 158.726 317.085 158.374 316.726 158.374H306.766C306.586 158.374 306.407 158.462 306.317 158.638L295.729 187.443C295.639 187.794 295.908 188.057 296.177 188.057Z" fill="#DDEDED"/>
<path d="M328.572 188.057H338.532C338.712 188.057 338.891 187.969 338.981 187.794L349.48 158.989C349.569 158.726 349.39 158.374 349.031 158.374H339.071C338.891 158.374 338.712 158.462 338.622 158.638L328.123 187.443C328.033 187.794 328.303 188.057 328.572 188.057Z" fill="#DDEDED"/>
<path d="M200.251 188.062H190.291C190.111 188.062 189.932 187.974 189.842 187.711L173.062 156.886C172.972 156.535 173.152 156.271 173.511 156.271H183.471C183.651 156.271 183.83 156.359 183.92 156.623L200.79 187.535C200.7 187.711 200.52 188.062 200.251 188.062Z" fill="#DDEDED"/>
<path d="M345.531 188.057H357.286C357.376 188.057 357.556 187.969 357.556 187.793L364.106 157.671C364.196 157.408 364.017 157.057 363.837 157.057H352.082C351.992 157.057 351.813 157.144 351.813 157.32L345.262 187.442C345.172 187.706 345.352 188.057 345.531 188.057Z" fill="#DDEDED"/>
<path d="M180.333 188.057H170.462C170.283 188.057 170.104 187.969 170.014 187.794L159.425 158.989C159.335 158.726 159.515 158.374 159.874 158.374H169.834C170.014 158.374 170.193 158.462 170.283 158.638L180.782 187.443C180.872 187.794 180.692 188.057 180.333 188.057Z" fill="#DDEDED"/>
<path d="M163.462 188.058H151.617C151.527 188.058 151.348 187.97 151.348 187.795L144.797 157.585C144.708 157.321 144.887 156.97 145.067 156.97H156.822C156.911 156.97 157.091 157.058 157.091 157.233L163.731 187.443C163.731 187.707 163.641 188.058 163.462 188.058Z" fill="#DDEDED"/>
<path d="M236.145 188.057H226.185C226.005 188.057 225.826 187.969 225.736 187.794L217.839 158.989C217.75 158.726 217.929 158.374 218.288 158.374H228.248C228.428 158.374 228.607 158.462 228.697 158.638L236.594 187.443C236.683 187.794 236.414 188.057 236.145 188.057Z" fill="#DDEDED"/>
<path d="M257.772 123.688H250.144C249.965 123.688 249.875 123.6 249.786 123.424L243.773 101.382C243.684 101.118 243.863 100.943 244.132 100.943H251.76C251.939 100.943 252.029 101.03 252.119 101.206L258.131 123.249C258.131 123.424 258.041 123.688 257.772 123.688Z" fill="#DDEDED"/>
<path d="M268.988 123.688H261.361C261.182 123.688 261.092 123.6 261.002 123.424L253.195 101.382C253.105 101.118 253.285 100.943 253.554 100.943H261.182C261.361 100.943 261.451 101.03 261.54 101.206L269.347 123.249C269.347 123.424 269.168 123.688 268.988 123.688Z" fill="#DDEDED"/>
<path d="M222.864 188.06H203.931C203.751 188.06 203.572 187.885 203.482 187.709L195.585 154.425C195.496 154.074 195.675 153.723 196.034 153.723H214.968C215.147 153.723 215.327 153.899 215.417 154.074L223.313 187.358C223.403 187.709 223.134 188.06 222.864 188.06Z" fill="#DDEDED"/>
<path d="M244.671 188.063H278.411C278.949 188.063 279.308 187.624 279.308 187.185V177.524C279.308 176.998 278.859 176.646 278.411 176.646H244.671C244.132 176.646 243.773 177.085 243.773 177.524V187.185C243.773 187.711 244.222 188.063 244.671 188.063Z" fill="#EFF5F9"/>
<path d="M244.671 169.352H278.411C278.949 169.352 279.308 168.912 279.308 168.473V158.813C279.308 158.286 278.859 157.935 278.411 157.935H244.671C244.132 157.935 243.773 158.374 243.773 158.813V168.473C243.773 168.912 244.222 169.352 244.671 169.352Z" fill="#DDEDED"/>
<path d="M241.89 175.852H274.822C275.181 175.852 275.361 175.589 275.361 175.325V171.637C275.361 171.286 275.091 171.11 274.822 171.11H241.89C241.531 171.11 241.352 171.373 241.352 171.637V175.237C241.352 175.589 241.621 175.852 241.89 175.852Z" fill="#DDEDED"/>
<path d="M174.05 123.774H201.957C202.406 123.774 202.675 123.422 202.675 123.071V115.08C202.675 114.64 202.316 114.377 201.957 114.377H174.05C173.601 114.377 173.332 114.728 173.332 115.08V123.071C173.332 123.51 173.691 123.774 174.05 123.774Z" fill="#DDEDED"/>
<path d="M212.189 123.688H243.506C243.775 123.688 244.044 123.424 244.044 123.161V117.453C244.044 117.189 243.775 116.926 243.506 116.926H212.189C211.919 116.926 211.65 117.189 211.65 117.453V123.161C211.56 123.424 211.83 123.688 212.189 123.688Z" fill="#DDEDED"/>
<path d="M210.839 116.312H238.029C238.298 116.312 238.477 116.136 238.477 115.872V112.887C238.477 112.623 238.298 112.448 238.029 112.448H210.839C210.57 112.448 210.391 112.623 210.391 112.887V115.872C210.391 116.136 210.57 116.312 210.839 116.312Z" fill="#DDEDED"/>
<path d="M363.39 123.686H394.617C394.976 123.686 395.245 123.423 395.245 123.071V116.309C395.245 115.958 394.976 115.695 394.617 115.695H363.39C363.031 115.695 362.762 115.958 362.762 116.309V123.071C362.762 123.423 363.031 123.686 363.39 123.686Z" fill="#DDEDED"/>
<path d="M332.699 115.611H357.375C357.645 115.611 357.914 115.348 357.914 115.084V109.288C357.914 109.025 357.645 108.761 357.375 108.761H332.699C332.429 108.761 332.16 109.025 332.16 109.288V115.084C332.16 115.348 332.429 115.611 332.699 115.611Z" fill="#DDEDED"/>
<path d="M362.132 114.993H389.232C389.501 114.993 389.77 114.729 389.77 114.466V110.865C389.77 110.602 389.501 110.338 389.232 110.338H362.132C361.863 110.338 361.594 110.602 361.594 110.865V114.554C361.594 114.817 361.863 114.993 362.132 114.993Z" fill="#DDEDED"/>
<path d="M326.777 123.162H353.697C354.056 123.162 354.325 122.899 354.325 122.548V117.015C354.325 116.664 354.056 116.4 353.697 116.4H326.777C326.418 116.4 326.148 116.664 326.148 117.015V122.548C326.238 122.899 326.507 123.162 326.777 123.162Z" fill="#DDEDED"/>
<path d="M177.907 113.239H204.917C205.276 113.239 205.456 112.975 205.456 112.712V108.057C205.456 107.706 205.186 107.53 204.917 107.53H177.907C177.548 107.53 177.369 107.794 177.369 108.057V112.712C177.279 113.063 177.548 113.239 177.907 113.239Z" fill="#DDEDED"/>
<path d="M444.597 238.03H137.977V243.299H444.597V238.03Z" stroke="#BFD7D6" stroke-miterlimit="10"/>
<path d="M444.597 189.203H137.977V194.472H444.597V189.203Z" stroke="#BFD7D6" stroke-miterlimit="10"/>
<path d="M444.597 125.004H137.977V130.273H444.597V125.004Z" stroke="#BFD7D6" stroke-miterlimit="10"/>
<rect x="137.977" y="32.3655" width="73.2483" height="18.7379" rx="9.36896" fill="#EFF5F9"/>
<rect x="250.406" y="34.0691" width="114.131" height="13.6276" fill="#EFF5F9"/>
<rect x="381.57" y="34.0691" width="25.5517" height="13.6276" fill="#EFF5F9"/>
<rect x="534.879" y="34.0691" width="61.3241" height="13.6276" fill="#DDEDED"/>
<rect x="630.273" y="34.0691" width="61.3241" height="13.6276" fill="#DDEDED"/>
<rect x="555.324" y="86.8757" width="136.276" height="15.331" fill="#EFF5F9"/>
<rect x="500.812" y="117.538" width="190.786" height="15.331" fill="#EFF5F9"/>
<rect x="500.812" y="178.862" width="190.786" height="15.331" fill="#EFF5F9"/>
<rect x="482.074" y="148.2" width="209.524" height="15.331" fill="#EFF5F9"/>
<rect x="633.68" y="219.745" width="57.9172" height="22.1448" fill="#DDEDED"/>
<rect x="137.977" y="270.848" width="553.62" height="10.2207" fill="#C9DCDB"/>
<path d="M642.098 233.921L625.621 240.786L632.487 243.533L635.233 250.398L642.098 233.921Z" fill="#EFF5F9"/>
<path fill-rule="evenodd" clip-rule="evenodd" d="M643.499 232.434C643.259 232.19 642.972 231.997 642.657 231.865C642.341 231.733 642.002 231.665 641.66 231.665C641.317 231.665 640.977 231.734 640.661 231.867L625.061 238.427C624.583 238.63 624.177 238.971 623.892 239.405C623.607 239.839 623.457 240.348 623.461 240.867C623.465 241.386 623.622 241.892 623.913 242.323C624.203 242.753 624.615 243.087 625.095 243.284L629.054 244.881L630.561 245.49L631.178 247.047L632.747 251.005C632.936 251.487 633.265 251.902 633.692 252.196C634.119 252.49 634.624 252.649 635.142 252.654H635.161C635.676 252.653 636.179 252.499 636.606 252.211C637.033 251.924 637.366 251.516 637.561 251.04L644.061 235.298C644.259 234.818 644.311 234.291 644.212 233.781C644.112 233.272 643.864 232.803 643.499 232.434ZM635.161 250.03L633.592 246.074L632.561 243.471L630.02 242.445L626.061 240.848L641.661 234.289L635.161 250.03Z" fill="#EFF5F9"/>
<circle cx="402.862" cy="319.396" r="16.1828" fill="#CADAE0"/>
<path d="M80.0586 294.697H749.513V334.097C749.513 339.619 745.036 344.097 739.513 344.097H90.0586C84.5357 344.097 80.0586 339.619 80.0586 334.097V294.697Z" fill="#DDEDED"/>
<path d="M388.466 361.509C387.298 356.794 384.378 352.651 380.436 349.794C379.706 350.365 379.998 351.508 380.436 352.223C380.874 352.937 381.312 353.937 381.02 354.651C378.977 352.794 376.495 351.365 373.867 350.508C372.991 350.222 371.677 350.222 371.531 351.08C371.531 351.365 371.677 351.794 371.823 352.08C373.575 355.223 375.911 358.08 378.539 360.509C379.998 361.795 381.458 362.938 383.356 363.652C385.108 364.367 387.298 364.367 388.904 363.366" fill="#F2BEB0"/>
<path d="M443.061 353.365C443.061 353.365 448.025 389.226 442.331 393.227C426.711 404.228 385.543 364.224 385.543 364.224L387.441 360.795L432.55 375.939" fill="#F2BEB0"/>
<path d="M458.391 591.958C458.391 591.958 459.558 594.101 460.434 594.244C465.106 592.958 486.274 578.956 486.274 578.956L484.814 576.385" fill="#F7D6C9"/>
<path d="M465.254 561.242L470.801 572.1L467.59 579.815C467.59 579.815 469.05 580.529 473.721 578.1C478.393 575.671 479.706 569.957 479.706 569.957L473.575 552.384" fill="#F2BEB0"/>
<path d="M469.925 573.242C469.925 573.242 468.465 572.099 468.027 573.242C467.589 574.385 468.027 575.385 467.443 576.528C465.399 580.243 461.02 585.958 459.122 588.101C457.224 590.244 457.954 592.673 459.414 592.101C462.626 591.101 481.458 580.386 485.107 576.814C484.816 574.242 481.458 570.099 479.706 569.385C475.472 573.528 469.925 573.242 469.925 573.242Z" fill="#231F3D"/>
<path d="M464.23 581.678C465.106 581.535 466.128 581.678 467.004 581.821C467.734 581.964 468.318 582.25 469.047 582.25C469.339 582.25 469.485 581.964 469.193 581.821C468.609 581.249 467.734 581.249 466.858 581.106C465.836 580.963 464.96 580.963 464.084 581.392C463.938 581.392 464.084 581.678 464.23 581.678Z" fill="#0E0D1E"/>
<path d="M466.274 578.667C467.15 578.667 468.026 578.667 468.901 578.953C469.631 579.096 470.361 579.668 471.091 579.811C471.383 579.811 471.529 579.525 471.383 579.382C470.215 578.095 467.734 577.952 466.274 578.381C465.982 578.381 465.982 578.667 466.274 578.667Z" fill="#0E0D1E"/>
<path d="M467.879 576.386C469.923 576.671 471.821 576.386 473.719 577.243C474.011 577.386 474.157 576.957 474.011 576.814C472.843 575.385 469.485 575.957 467.879 576.1C467.587 575.957 467.587 576.243 467.879 576.386Z" fill="#0E0D1E"/>
<path d="M362.77 594.818C362.77 594.818 362.77 597.246 363.499 597.818C368.171 598.818 393.573 596.246 393.573 596.246V593.246" fill="#F7D6C9"/>
<path d="M383.644 570.956L383.206 582.957L376.637 588.243C376.637 588.243 377.513 589.529 382.914 589.529C388.316 589.529 392.111 585.1 392.111 585.1L395.177 566.669" fill="#F2BEB0"/>
<path d="M382.039 583.674C382.039 583.674 381.309 581.959 380.287 582.674C379.411 583.531 379.119 584.531 378.097 585.245C374.593 587.531 367.878 590.674 365.25 591.675C362.623 592.675 362.039 595.103 363.644 595.389C367.002 595.961 388.754 595.246 393.571 593.818C394.593 591.389 393.572 586.245 392.404 584.674C386.856 586.388 382.039 583.674 382.039 583.674Z" fill="#231F3D"/>
<path d="M372.987 588.382C373.862 588.668 374.592 589.239 375.322 589.811C375.906 590.239 376.344 590.953 376.928 591.239C377.074 591.382 377.512 591.239 377.366 590.953C377.074 590.239 376.198 589.668 375.614 589.239C374.884 588.668 374.008 588.382 373.133 588.239C372.841 588.096 372.841 588.382 372.987 588.382Z" fill="#0E0D1E"/>
<path d="M376.199 586.678C377.075 587.107 377.805 587.536 378.535 588.107C379.119 588.679 379.41 589.393 380.14 589.822C380.286 589.964 380.578 589.679 380.578 589.536C380.432 588.679 379.556 587.964 378.973 587.536C378.243 586.964 377.513 586.536 376.491 586.25C376.053 586.25 375.907 586.678 376.199 586.678Z" fill="#0E0D1E"/>
<path d="M378.682 585.39C379.557 585.962 380.579 586.533 381.455 587.105C382.331 587.533 382.915 588.105 383.499 588.819C383.645 589.105 383.937 588.819 383.937 588.534C383.791 587.676 382.915 587.105 382.185 586.676C381.163 586.105 379.995 585.533 378.828 585.105C378.682 584.962 378.536 585.247 378.682 585.39Z" fill="#0E0D1E"/>
<path d="M405.398 401.794C405.398 401.794 420.143 494.517 455.617 564.953L479.121 560.667C479.121 560.667 456.493 503.375 449.778 448.942C451.822 433.512 449.486 406.938 434.158 391.936" fill="#5E3643"/>
<path d="M403.353 396.933C403.353 396.933 388.754 430.365 384.521 475.798C381.309 510.516 381.893 571.379 381.893 571.379H407.003C407.003 571.379 413.426 492.228 417.66 475.227C421.893 458.225 438.389 429.079 429.63 399.648" fill="#5E3643"/>
<path d="M419.703 468.941C419.703 468.941 422.185 460.369 427.294 447.51C436.783 432.937 436.783 425.508 432.696 412.078" stroke="#351A24" stroke-width="0.5" stroke-miterlimit="10"/>
<path d="M401.309 403.223C401.309 403.223 410.652 405.652 427.294 403.223C436.199 401.937 440.141 399.509 440.141 399.509" stroke="#351A24" stroke-width="0.5" stroke-miterlimit="10"/>
<path d="M417.805 404.363C417.805 404.363 418.243 401.934 417.805 399.648" stroke="#351A24" stroke-width="0.5" stroke-miterlimit="10"/>
<path d="M435.327 401.365C435.327 401.365 434.305 397.936 432.699 396.508" stroke="#351A24" stroke-width="0.5" stroke-miterlimit="10"/>
<path d="M407.148 404.08C407.148 404.08 396.783 430.654 390.506 475.087C385.104 513.519 386.418 571.239 386.418 571.239" stroke="#351A24" stroke-width="0.5" stroke-miterlimit="10"/>
<path d="M422.77 459.515C422.77 459.515 434.74 508.806 458.098 564.24" stroke="#351A24" stroke-width="0.5" stroke-miterlimit="10"/>
<path d="M430.072 335.22C441.897 339.935 447.006 360.651 448.758 371.938C443.211 372.938 439.269 374.509 426.13 372.938C422.773 369.652 419.707 349.364 419.707 349.364" fill="#F49E5D"/>
<path d="M427.588 329.218C427.588 329.218 441.018 340.505 441.018 358.792C441.018 377.08 438.245 387.366 438.245 389.367C438.245 391.367 441.31 393.224 438.245 396.51C435.179 399.653 399.412 401.653 400.434 396.51C402.916 383.223 391.091 366.221 394.449 354.792C397.806 343.362 406.566 340.505 407.734 334.075" fill="#F49E5D"/>
<path d="M347.93 348.784L367.615 376.201L378.647 360.246C379.435 360.012 379.819 359.248 379.395 358.577L362.861 332.527C362.639 332.12 361.952 331.911 361.487 332.108L347.93 348.784Z" fill="#5E5256"/>
<path d="M349.587 348.471L369.177 375.158L380.146 359.66C380.978 359.416 381.386 358.628 380.94 357.937L364.672 332.65C364.439 332.231 363.735 332.164 363.202 332.076L349.587 348.471Z" fill="#BDBDBD"/>
<path d="M362.88 334.15L351.146 348.174C351.087 348.245 351.084 348.346 351.139 348.421L367.784 371.071C367.865 371.18 368.029 371.179 368.108 371.069L378.171 357.045C378.219 356.978 378.221 356.887 378.175 356.818L363.201 334.168C363.127 334.057 362.966 334.048 362.88 334.15Z" fill="#E0E0E0"/>
<path d="M357.723 344.096L354.316 348.355L357.723 352.614L361.13 348.355L357.723 344.096Z" fill="#EFF5F9"/>
<path d="M362.837 337.282L359.43 341.541L362.837 345.8L366.243 341.541L362.837 337.282Z" fill="#EFF5F9"/>
<path d="M362.869 350.813L359.304 354.939L362.547 359.324L366.113 355.197L362.869 350.813Z" fill="#EFF5F9"/>
<path d="M368.233 344.198L364.667 348.325L367.91 352.71L371.476 348.583L368.233 344.198Z" fill="#EFF5F9"/>
<path d="M366.802 357.591L363.119 361.614L366.236 366.089L369.918 362.067L366.802 357.591Z" fill="#EFF5F9"/>
<path d="M372.352 351.136L368.67 355.159L371.787 359.635L375.469 355.612L372.352 351.136Z" fill="#EFF5F9"/>
<path d="M441.021 373.223C441.021 373.223 442.481 354.507 437.371 342.506" stroke="#E2881B" stroke-width="0.5" stroke-miterlimit="10"/>
<path d="M402.775 371.218L398.687 384.219L366.571 370.646L363.797 374.647C363.797 374.647 393.578 407.221 406.279 403.221C418.833 399.22 430.074 361.502 430.074 361.502" fill="#F2BEB0"/>
<path d="M422.48 330.074C421.604 329.216 404.086 345.789 401.312 373.364C409.926 383.079 433.575 380.221 433.575 380.221C433.575 380.221 443.064 328.359 423.794 329.931" fill="#F49E5D"/>
<path d="M433.575 347.649C436.349 359.507 433.575 380.223 433.575 380.223C433.575 380.223 410.656 383.081 401.312 373.366C401.312 373.366 403.356 357.221 407.298 349.506" stroke="#E2881B" stroke-width="0.5" stroke-miterlimit="10"/>
<path d="M367.006 374.367C367.736 373.938 368.028 373.081 368.174 372.367C368.32 371.652 368.32 370.795 368.174 369.938C367.882 367.081 367.444 364.223 366.714 361.366C366.714 361.08 366.568 360.794 366.276 360.794C366.13 360.794 365.984 360.937 365.984 361.08C365.547 361.651 365.255 362.366 365.255 363.08C365.255 363.509 365.401 364.366 364.963 364.652C364.087 365.223 362.627 363.652 362.335 363.08C360.875 361.08 360.437 358.651 359.707 356.365C359.707 356.222 359.561 356.079 359.415 355.937C359.123 355.794 358.831 356.222 358.685 356.508C357.955 358.937 358.393 361.794 359.707 363.937C357.517 361.937 357.079 358.937 356.057 356.222C356.057 356.079 356.058 356.079 355.912 356.079C355.62 355.937 355.328 356.222 355.328 356.508C354.598 360.366 356.203 364.509 358.247 367.795C360.291 371.224 363.065 374.51 366.568 376.51" fill="#F2BEB0"/>
<path d="M397.66 305.502C397.66 305.502 395.47 323.076 399.704 324.647C402.331 325.647 405.543 323.933 405.543 323.933L407.733 334.077C410.945 340.506 417.806 331.934 417.806 331.934C417.806 331.934 415.178 300.216 408.901 299.073C401.893 297.645 401.602 298.93 397.66 305.502Z" fill="#F2BEB0"/>
<path d="M397.515 312.789C397.515 312.789 393.865 318.075 395.325 318.504C396.785 319.075 398.829 318.075 398.829 318.075" fill="#F2BEB0"/>
<path d="M400.433 310.932C400.141 310.503 399.557 309.931 399.265 310.646C398.827 311.36 398.973 312.074 399.265 312.789C399.557 313.646 400.725 313.503 400.871 312.646C400.871 312.074 400.725 311.503 400.433 310.932Z" fill="#231F3D"/>
<path d="M398.831 308.65C399.561 308.507 400.437 308.364 401.167 308.65C401.897 308.936 402.335 309.508 402.919 309.794C403.065 309.937 403.357 309.651 403.211 309.508C402.481 307.649 400.291 307.506 398.539 308.078C398.539 308.364 398.539 308.65 398.831 308.65Z" fill="#231F3D"/>
<path d="M410.51 298.5C408.758 297.929 407.59 295.5 407.59 293.643C407.59 291.785 409.634 290.214 411.385 289.642C411.823 289.5 412.261 289.5 412.699 289.5C413.575 289.642 414.305 289.928 414.889 290.5C415.473 290.928 416.057 291.643 416.495 292.357C417.371 293.929 417.371 295.929 416.349 297.357C415.473 298.786 413.575 299.786 411.823 299.643" fill="#231F3D"/>
<path d="M443.355 337.506C443.501 336.792 443.501 336.077 443.501 335.363C443.355 332.505 441.311 331.362 439.851 329.219C438.099 326.648 438.975 322.933 437.223 320.219C434.741 316.361 428.902 316.933 426.274 313.075C424.522 310.503 425.106 307.36 424.522 304.503C423.938 301.788 422.187 298.931 419.705 297.502C417.369 296.073 414.011 295.788 411.384 295.788C408.464 295.93 405.398 296.788 402.916 298.359C402.624 298.645 402.333 298.788 401.895 298.931C401.457 299.074 401.165 298.931 400.727 298.931C397.953 298.931 395.617 301.36 395.617 304.074C395.617 304.503 395.617 304.788 395.909 305.074C396.055 305.217 396.347 305.36 396.639 305.36C399.267 305.931 402.187 305.074 404.668 306.074C407.588 307.217 407.88 309.789 408.026 312.504C408.318 315.504 408.61 319.361 410.8 321.79C411.676 322.79 412.989 323.79 413.135 325.219C413.135 326.362 412.406 327.219 411.822 328.219C410.8 329.791 410.508 331.791 410.362 333.648C410.07 335.934 410.07 338.22 410.8 340.363C412.114 344.792 416.493 348.078 421.019 349.221C425.69 350.221 430.654 349.364 434.887 347.364C437.223 346.364 439.705 344.935 441.165 342.792C442.333 341.363 443.063 339.363 443.355 337.506Z" fill="#231F3D"/>
<path d="M398.391 321.36C398.391 321.36 402.186 321.503 403.208 319.217" stroke="#DD816C" stroke-width="0.5" stroke-miterlimit="10"/>
<path d="M471 441.364H467.715V523.17H471V441.364Z" fill="#DDEDF8"/>
<path d="M500.382 454.392H438.512L451.287 415.633H487.607L500.382 454.392Z" fill="#DDEDF8"/>
<path d="M477.074 478.664L458.227 549.004L476.86 553.997L495.707 483.657L477.074 478.664Z" fill="#DFEAEF"/>
<path d="M474.899 486.77L472.727 494.88L491.36 499.872L493.533 491.763L474.899 486.77Z" fill="#CADAE0"/>
<path d="M510.527 550.632L510.527 475.256L495.702 475.256L495.702 550.632L510.527 550.632Z" fill="#BACED8"/>
<path d="M510.527 490.405L510.527 483.288L495.702 483.288L495.702 490.405L510.527 490.405Z" fill="#CADAE0"/>
<path d="M510.527 499.164L510.527 494.054L495.702 494.054L495.702 499.164L510.527 499.164Z" fill="#CADAE0"/>
<path d="M389.417 555.674L378.832 653.02C378.649 654.27 379.562 655.342 380.839 655.342C381.752 655.342 382.665 654.806 382.847 653.913L403.106 555.674" stroke="#775A46" stroke-miterlimit="10"/>
<path d="M557.141 555.676L567.727 653.021C567.909 654.272 566.997 655.343 565.719 655.343C564.807 655.343 563.894 654.807 563.712 653.914L543.453 555.676" stroke="#775A46" stroke-miterlimit="10"/>
<path d="M575.764 550.205H376.461V558.722H575.764V550.205Z" fill="#E8CAB5"/>
<path d="M486.393 549.113H479.458C474.895 549.113 471.245 545.54 471.245 541.075L471.062 521.427L494.241 521.249L494.424 540.896C494.606 545.362 490.956 549.113 486.393 549.113Z" fill="#CADAE0"/>
<path d="M488.581 547.686H477.266V550.901H488.581V547.686Z" fill="#CADAE0"/>
<path d="M481.1 543.931H469.419C467.047 543.931 465.039 541.966 465.039 539.644V530.892C465.039 528.57 467.047 526.605 469.419 526.605H481.1V543.931Z" stroke="#CADAE0" stroke-width="2" stroke-miterlimit="10"/>
<path d="M689.101 528.528C694.029 522.455 694.029 513.524 690.743 506.379C687.458 499.235 681.253 493.876 674.865 489.232C668.295 484.588 660.812 480.48 652.599 479.944C649.131 479.766 645.481 480.123 642.744 482.266C638.911 484.946 637.633 489.947 637.268 494.412C637.086 498.52 637.633 502.45 639.093 506.201C643.291 516.203 654.242 528.349 665.01 531.386C673.04 533.708 681.8 531.386 689.101 528.528Z" fill="#DDEDED"/>
<path d="M741.846 502.447C734.363 496.553 731.625 486.372 732.72 477.084C734.545 462.795 742.576 447.434 754.986 438.682C759.549 435.466 765.572 433.502 770.865 434.931C782.18 437.788 785.283 451.185 783.458 460.83C781.085 473.512 771.96 484.586 762.652 493.516C756.994 498.875 749.876 503.34 741.846 502.447Z" fill="#DDEDED"/>
<path d="M725.419 452.791C722.316 451.898 718.118 449.397 716.841 446.718C709.358 431.536 708.81 412.603 717.753 397.063C722.499 388.668 731.624 379.38 741.662 375.451C746.407 373.486 752.43 373.307 756.628 376.165C761.921 379.559 763.198 386.882 764.111 392.419C765.023 398.313 764.841 404.386 763.928 410.281C761.921 422.069 756.445 433.858 747.685 443.324C746.407 444.753 744.947 446.182 743.487 447.433C739.837 450.29 733.632 452.97 725.419 452.791Z" fill="#CFE2E1"/>
<path d="M750.057 526.743C748.962 525.314 747.867 522.456 748.232 520.67C750.422 509.953 757.175 499.415 767.213 494.056C772.688 491.02 780.353 489.055 786.559 490.306C789.479 490.841 792.399 492.806 793.494 495.485C794.589 499.058 792.582 503.523 790.939 506.738C789.114 510.31 786.924 513.526 784.186 516.383C778.711 522.099 771.775 526.743 764.11 528.886C763.015 529.244 761.737 529.601 760.46 529.78C757.905 530.137 753.89 529.601 750.057 526.743Z" fill="#CFE2E1"/>
<path d="M695.491 434.397C692.571 430.467 689.103 426.895 684.906 424.037C675.415 417.786 659.354 414.571 651.506 424.752C647.674 429.574 648.769 436.54 650.776 442.256C655.704 456.724 666.107 469.584 679.248 477.8C687.096 482.623 698.959 485.302 704.799 475.836C708.449 469.941 705.894 460.832 704.617 454.58C702.791 447.614 699.871 440.47 695.491 434.397Z" fill="#CFE2E1"/>
<path d="M669.57 431.541C687.821 446.008 699.137 474.944 703.882 496.735C708.627 518.526 709.54 540.853 710.452 563.002" stroke="#A5C6C4" stroke-width="0.75" stroke-miterlimit="10"/>
<path d="M763.745 457.258C748.597 477.799 725.783 524.596 725.418 581.396" stroke="#A5C6C4" stroke-width="0.75" stroke-miterlimit="10"/>
<path d="M745.131 389.027C717.207 446.899 719.397 505.485 719.762 576.931" stroke="#A5C6C4" stroke-width="0.75" stroke-miterlimit="10"/>
<path d="M653.328 496.198C684.172 511.738 704.066 546.032 701.693 579.969" stroke="#A5C6C4" stroke-width="0.75" stroke-miterlimit="10"/>
<path d="M773.237 505.308C744.948 518.347 729.253 554.605 727.062 588.542" stroke="#A5C6C4" stroke-width="0.75" stroke-miterlimit="10"/>
<path d="M676.691 553.889V578.538C676.691 642.125 697.68 651.592 697.68 651.592H743.672C743.672 651.592 764.661 642.125 764.661 578.538V553.889H676.691Z" fill="white" stroke="#EFF5F9" stroke-miterlimit="10"/>
<path d="M138.29 520.666C132.632 516.201 130.807 507.984 132.45 501.018C134.092 494.052 138.473 487.979 143.218 482.621C148.146 477.084 154.168 471.904 161.286 469.939C164.389 469.046 167.674 468.868 170.594 470.118C174.609 471.904 176.8 476.012 177.895 480.12C178.807 483.693 179.172 487.444 178.625 491.195C176.982 501.018 169.499 513.879 160.374 518.88C153.803 522.274 145.591 521.916 138.29 520.666Z" fill="#DDEDED"/>
<path d="M76.7825 490.123C84.4479 483.515 87.003 472.441 85.1779 462.617C82.4403 447.434 73.1323 431.538 59.6267 422.785C54.5164 419.57 48.1286 417.784 42.4708 419.57C30.6077 423.143 27.8701 437.432 30.2427 447.792C33.3454 461.188 43.5659 472.619 53.9689 481.55C60.3567 486.908 68.2046 491.374 76.7825 490.123Z" fill="#CFE2E1"/>
<path d="M103.427 471.19C106.712 470.118 111.092 466.903 112.552 463.866C120.4 445.648 121.13 423.142 111.822 404.923C106.712 395.1 97.2215 384.383 86.8184 379.917C81.7082 377.774 75.3204 377.595 71.1227 380.989C65.6474 385.276 64.1873 394.028 63.2748 400.279C62.1797 407.245 62.3622 414.39 63.4573 421.535C65.4649 435.645 71.3052 449.399 80.4306 460.473C81.8907 462.08 83.3508 463.866 84.9934 465.295C88.096 468.689 94.6663 471.725 103.427 471.19Z" fill="#DDEDED"/>
<path d="M70.7588 525.132C72.2189 523.346 73.4965 519.953 72.9489 517.631C70.2113 504.592 61.9984 491.553 49.5878 484.944C42.835 481.372 33.3445 478.871 25.8616 480.3C22.2114 481.014 18.5613 483.336 17.4662 486.73C16.0061 491.196 18.5613 496.554 20.5689 500.484C22.759 504.77 25.6791 508.7 28.9643 512.272C35.5346 519.417 44.295 524.954 53.603 527.812C55.0631 528.169 56.5231 528.526 57.9832 528.883C61.0859 529.241 66.0136 528.526 70.7588 525.132Z" fill="#DDEDED"/>
<path d="M128.979 426.36C131.534 422.073 134.819 417.965 139.017 414.75C148.142 407.427 164.385 402.783 173.511 412.428C177.891 417.072 177.526 424.217 176.066 430.468C172.233 445.829 162.925 459.94 149.967 469.585C142.302 475.301 130.256 479.051 123.503 469.942C119.306 464.226 120.948 454.581 121.861 448.151C122.591 440.471 124.963 432.969 128.979 426.36Z" fill="#CFE2E1"/>
<path d="M156.722 416.71C140.114 435.822 119.49 484.942 117.848 585.502" stroke="#A5C6C4" stroke-width="0.75" stroke-miterlimit="10"/>
<path d="M51.2305 444.039C68.3863 465.294 95.0326 514.056 98.1353 574.607" stroke="#A5C6C4" stroke-width="0.75" stroke-miterlimit="10"/>
<path d="M84.6289 400.634C108.538 452.968 109.085 505.481 107.26 569.426" stroke="#A5C6C4" stroke-width="0.75" stroke-miterlimit="10"/>
<path d="M161.104 488.335C146.503 500.302 126.244 531.381 123.324 574.785" stroke="#A5C6C4" stroke-width="0.75" stroke-miterlimit="10"/>
<path d="M42.1055 498.696C76.7822 514.771 96.3107 559.246 98.8658 601.042" stroke="#A5C6C4" stroke-width="0.75" stroke-miterlimit="10"/>
<path d="M151.247 553.891V578.54C151.247 642.127 130.258 651.594 130.258 651.594H84.2659C84.2659 651.594 63.2773 642.127 63.2773 578.54V553.891H151.247Z" fill="white" stroke="#EFF5F9" stroke-miterlimit="10"/>
<path d="M260.203 575.317C248.522 564.6 241.222 550.311 232.279 537.272C223.336 524.412 211.108 512.088 195.412 509.408C184.644 507.622 173.511 510.48 164.02 515.838C154.53 521.197 146.682 528.699 139.382 536.736C125.328 551.919 112.735 568.709 103.062 586.927C93.5718 604.61 84.2638 624.794 82.0737 644.799C81.5262 650.157 81.5262 655.873 83.7163 660.874C86.8189 667.662 93.0243 673.199 100.142 675.699C121.861 683.201 156.72 685.166 185.739 685.523C220.051 685.88 253.085 685.702 277.906 685.702C320.431 685.702 341.602 683.38 337.769 662.482C335.761 651.229 318.24 636.047 313.313 631.76" fill="#EFF5F9"/>
<path d="M137.192 536.56C127.701 546.205 128.614 560.851 124.051 572.64C118.393 587.286 108.173 599.432 99.9598 612.65C92.8419 623.903 86.4541 636.584 86.6366 650.159C86.8191 661.233 91.1994 672.665 100.872 679.273C101.42 679.631 101.967 678.738 101.42 678.202C90.8343 670.521 86.8191 657.482 88.0967 644.979C89.5568 630.869 97.4047 618.187 105.253 606.577C112.553 595.86 120.583 585.143 125.146 572.819C129.526 561.03 128.614 546.741 137.557 536.917C137.922 536.56 137.374 536.202 137.192 536.56Z" fill="white"/>
<path d="M136.828 546.033C137.558 559.608 130.257 571.396 125.147 583.542C122.409 590.329 120.219 597.295 116.569 603.547C113.284 609.084 108.904 613.907 105.984 619.622C95.9456 638.734 97.2231 662.847 109.634 680.53C110.181 681.245 111.094 680.53 110.729 679.816C96.8581 659.096 97.5882 632.84 111.824 612.478C115.292 607.477 118.577 602.833 120.949 597.295C123.687 591.044 125.877 584.435 128.615 578.184C133.177 567.824 138.105 557.464 137.375 545.854C137.558 545.497 136.828 545.497 136.828 546.033Z" fill="white"/>
<path d="M149.053 524.955C142.665 538.172 144.855 553.891 140.84 568.001C136.46 583.898 128.794 598.902 122.224 614.084C116.566 626.766 108.171 640.34 107.988 654.451C107.988 660.345 109.083 666.418 111.456 671.955C112.368 673.92 115.471 682.494 119.121 679.636C119.851 679.1 119.121 678.028 118.391 678.564C114.741 681.422 109.448 660.881 109.266 658.917C108.718 652.486 109.813 646.235 112.003 640.162C117.114 626.587 123.684 613.548 129.524 600.331C134.635 588.721 139.927 576.932 142.848 564.429C145.768 551.569 143.943 537.637 149.418 525.491C149.783 524.955 149.235 524.598 149.053 524.955Z" fill="white"/>
<path d="M162.744 516.556C156.356 527.094 154.896 539.24 154.349 551.207C153.801 565.318 153.801 579.071 150.151 592.824C143.398 617.831 126.972 641.765 131.535 668.736C132.083 671.951 132.995 675.166 134.273 678.381C135.185 680.525 136.463 684.276 138.47 685.705C139.93 686.776 142.121 685.883 141.025 684.097C140.66 683.561 139.93 683.918 140.113 684.454C138.835 683.918 137.923 682.847 137.375 681.596C136.828 680.703 136.463 679.989 136.098 679.096C135.368 677.488 134.638 675.702 134.273 673.916C133.178 670.344 132.63 666.593 132.448 662.842C132.083 655.697 132.995 648.374 134.638 641.408C138.105 627.119 144.858 614.08 149.421 600.148C153.801 586.752 155.079 573.177 155.444 559.245C155.809 544.598 156.174 529.952 163.474 516.734C163.657 516.556 162.927 516.198 162.744 516.556Z" fill="white"/>
<path d="M173.146 515.49C166.941 527.636 167.123 541.032 166.758 554.25C166.393 569.611 163.291 584.793 160.188 599.797C158.728 607.12 157.085 614.443 154.895 621.588C153.07 627.661 148.872 634.805 149.42 641.236C149.602 643.915 150.698 646.237 151.793 648.559C153.8 653.024 155.26 656.775 155.443 661.598C155.625 665.349 155.443 669.1 155.26 672.851C155.26 673.922 156.173 683.925 155.808 684.103C156.355 683.925 155.99 683.032 155.443 683.21C155.26 683.21 155.26 683.21 155.078 683.21C154.895 683.21 154.713 683.567 154.713 683.746C154.53 686.247 156.903 685.354 157.45 683.389C157.998 680.888 156.72 676.959 156.72 674.279C156.72 669.993 157.085 665.706 156.903 661.419C156.72 657.668 155.808 654.096 154.348 650.702C152.888 647.13 150.698 643.558 150.88 639.628C151.063 634.984 153.618 630.161 155.078 625.696C156.355 621.767 157.45 617.837 158.545 613.729C162.561 597.832 166.028 581.221 167.488 564.967C168.948 548.534 166.211 531.03 173.694 515.669C173.876 515.312 173.329 515.133 173.146 515.49Z" fill="white"/>
<path d="M179.896 513.881C176.611 529.242 177.888 544.782 179.166 560.5C179.713 568.895 180.444 577.111 180.078 585.506C179.713 594.079 178.071 602.296 176.428 610.691C174.786 618.55 173.326 626.588 172.048 634.447C171.136 640.162 169.31 645.699 173.508 650.522C183.181 661.953 185.919 677.136 178.801 690.71C179.166 690.71 179.531 690.532 180.078 690.532C178.983 689.639 178.253 689.103 177.158 688.21C176.611 687.853 176.063 688.567 176.428 689.103C177.341 689.996 178.071 690.71 178.983 691.604C179.348 691.961 179.896 691.961 180.261 691.425C185.736 681.065 185.919 668.562 180.809 658.202C179.713 655.88 178.253 653.558 176.428 651.415C174.603 649.093 172.778 647.664 172.413 644.449C172.231 642.484 172.778 640.341 173.143 638.376C174.421 629.803 175.881 621.229 177.706 612.834C179.348 604.975 180.991 596.937 181.539 588.9C182.086 581.041 181.721 573.36 180.991 565.501C179.713 548.354 177.523 531.207 180.809 514.06C180.809 513.524 180.078 513.345 179.896 513.881Z" fill="white"/>
<path d="M186.654 514.596C188.479 547.283 191.582 580.148 189.939 613.014C189.574 621.051 188.844 629.089 188.114 637.127C187.567 643.2 187.384 648.737 191.4 653.738C193.955 656.953 196.327 659.454 197.97 663.204C199.612 666.955 200.342 670.706 200.89 674.814C201.62 680.53 202.898 691.604 195.415 693.748C194.502 693.926 194.867 695.355 195.78 695.177C206.548 692.676 202.898 674.1 200.89 666.955C199.977 663.74 198.7 660.525 196.692 657.846C194.32 654.631 191.217 652.13 189.939 648.201C188.662 643.914 189.574 639.27 189.939 634.983C190.304 630.696 190.852 626.41 191.035 622.123C193.59 586.4 189.939 550.677 187.202 514.954C187.202 514.061 186.472 514.061 186.654 514.596Z" fill="white"/>
<path d="M193.951 510.489C202.894 543.533 204.354 577.827 203.989 611.764C203.989 620.159 203.806 628.554 203.624 636.949C203.441 642.486 201.981 649.988 206.179 654.453C208.369 656.954 211.472 658.561 214.027 660.705C217.495 663.741 220.415 667.314 222.057 671.422C224.795 678.745 222.605 687.14 215.304 690.712C214.574 691.07 215.122 692.32 215.852 691.963C223.882 688.747 226.437 679.102 223.882 671.6C222.24 666.778 218.955 662.848 215.122 659.455C212.749 657.49 210.012 655.882 207.822 653.739C204.536 650.345 205.084 646.058 205.084 641.772C205.449 613.193 206.179 584.615 203.441 556.036C201.799 540.497 199.061 524.957 194.681 509.953C194.498 509.775 193.768 509.953 193.951 510.489Z" fill="white"/>
<path d="M205.268 514.052C216.766 547.631 213.846 583.354 215.671 618.184C216.036 626.401 216.766 634.617 218.043 642.655C219.138 650.157 222.241 652.3 228.811 655.515C242.499 662.302 247.245 678.735 240.492 691.953C240.127 692.846 241.404 693.56 241.769 692.667C246.515 685.165 246.332 675.341 242.682 667.482C240.857 663.553 238.119 659.98 234.652 657.123C229.541 653.014 222.058 652.479 220.051 645.334C218.226 638.368 218.043 630.33 217.496 623.007C216.948 616.041 216.766 608.896 216.583 601.752C216.218 587.463 216.036 572.995 214.941 558.705C213.663 543.344 211.108 528.162 205.815 513.694C205.815 513.516 205.085 513.694 205.268 514.052Z" fill="white"/>
<path d="M218.591 517.451C229.359 550.852 227.169 586.218 232.279 620.512C233.374 628.192 234.469 636.766 237.572 643.732C240.309 649.984 245.967 652.484 251.99 655.163C259.838 658.736 264.766 664.094 267.138 672.132C269.146 678.919 272.614 697.674 260.933 697.138C260.02 697.138 259.838 698.388 260.751 698.567C272.979 700.353 271.154 682.492 269.693 675.526C268.598 670.346 266.773 665.344 263.306 661.236C259.655 656.771 254.728 654.806 249.617 652.484C246.332 651.055 243.047 649.448 240.857 646.59C238.302 643.375 237.389 639.267 236.477 635.337C234.652 627.478 233.374 619.44 232.462 611.403C230.637 596.22 229.906 581.038 228.629 565.856C227.169 549.423 224.614 532.99 219.321 517.094C219.503 516.558 218.408 516.915 218.591 517.451Z" fill="white"/>
<path d="M234.287 538.525C239.945 553.707 243.595 569.425 245.055 585.501C246.515 600.147 245.238 615.508 250.348 629.619C252.356 635.156 255.276 640.514 259.473 644.98C263.489 649.088 268.416 652.124 273.162 655.339C278.819 659.09 284.477 663.734 285.937 670.7C287.397 677.845 284.112 684.811 278.454 689.276C277.724 689.812 278.637 690.884 279.367 690.348C288.492 684.454 290.682 671.951 284.66 663.198C281.374 658.554 276.629 655.339 271.884 652.303C265.131 647.837 259.108 643.372 255.093 636.227C246.515 621.045 248.158 603.005 246.515 586.215C244.873 569.783 240.857 553.528 234.835 538.168C234.835 537.81 234.105 537.989 234.287 538.525Z" fill="white"/>
<path d="M249.435 561.568C253.998 574.964 257.101 588.003 259.108 602.114C260.751 613.545 264.036 624.262 271.154 633.729C274.257 638.016 278.089 641.945 282.287 645.16C286.667 648.733 291.777 651.055 296.34 654.091C301.998 657.663 306.926 662.843 308.386 669.452C310.028 676.775 306.561 684.098 299.808 687.671C299.26 688.028 299.625 689.1 300.355 688.742C310.028 685.17 312.583 673.739 308.751 664.987C303.275 653.019 289.405 649.626 280.279 641.231C270.059 631.943 263.853 619.797 261.298 606.222C259.838 598.72 259.291 591.218 257.466 583.895C255.641 576.215 252.903 568.713 250.165 561.211C249.983 560.854 249.253 561.032 249.435 561.568Z" fill="white"/>
<path d="M261.845 572.999C268.963 595.326 277.358 618.368 293.784 635.872C297.252 639.623 301.267 643.195 305.465 646.232C310.393 649.804 316.963 652.126 320.796 656.949C329.009 667.665 327.183 683.384 322.986 695.172C322.621 695.887 324.081 696.601 324.446 695.708C329.191 685.706 329.556 673.56 325.906 663.021C324.263 658.377 321.891 654.448 317.693 651.59C312.4 648.018 306.742 645.339 301.815 641.23C280.826 623.547 271.883 597.291 262.758 572.642C262.393 572.106 261.663 572.463 261.845 572.999Z" fill="white"/>
<path d="M276.261 590.325C284.109 597.112 285.934 607.472 290.497 616.403C295.242 625.691 303.273 632.657 311.303 639.087C319.881 646.231 329.189 653.376 334.299 663.557C339.227 673.56 338.315 685.348 330.284 693.565C329.737 694.1 330.467 694.993 331.014 694.458C338.315 689.278 340.14 679.633 338.862 671.416C336.854 660.163 328.642 651.411 320.246 644.088C310.573 635.872 299.44 628.549 293.052 617.474C287.577 608.186 285.934 596.755 277.174 589.789C276.444 589.432 275.714 589.968 276.261 590.325Z" fill="white"/>
<g opacity="0.62">
<path opacity="0.62" d="M337.951 662.66C335.943 651.408 318.422 636.225 313.494 631.938L260.384 575.496C258.742 573.888 257.099 572.281 255.456 570.495C249.616 570.137 243.776 569.602 237.936 569.066C229.175 568.351 202.894 569.423 199.791 560.849C196.141 551.026 193.221 540.487 186.651 532.092C180.81 524.412 170.407 536.558 167.487 542.273C163.107 551.383 166.027 565.315 166.21 575.139C166.575 592.464 166.94 609.969 165.844 627.294C165.662 630.867 165.297 634.439 163.837 637.654C161.647 642.119 157.632 645.156 153.616 648.014C145.403 653.908 137.373 659.802 129.16 665.697C141.023 665.518 152.156 660.874 163.654 658.552C188.841 653.372 214.939 658.731 240.673 658.374C251.989 658.195 263.304 656.766 274.437 658.909C276.993 659.445 279.365 660.16 281.92 661.053C290.133 664.268 297.434 670.162 299.989 678.2C300.719 680.522 301.266 683.201 302.909 685.166C328.46 683.916 340.871 678.914 337.951 662.66Z" fill="#D7E9F2"/>
</g>
<path d="M525.574 559.607C538.897 547.461 547.292 531.029 557.513 516.204C567.916 501.379 581.786 487.447 599.672 484.232C611.9 482.088 624.676 485.482 635.627 491.555C646.395 497.628 655.52 506.38 663.733 515.489C679.794 532.994 694.212 552.106 705.345 572.825C716.296 593.008 726.881 616.05 729.254 639.091C729.984 645.343 729.801 651.773 727.246 657.489C723.778 665.348 716.661 671.599 708.448 674.278C683.626 682.852 643.657 685.174 610.623 685.531C571.383 685.888 533.604 685.888 505.133 685.888C456.585 685.888 432.311 683.209 436.692 659.275C439.064 646.236 459.14 629.089 464.798 624.087" fill="#EFF5F9"/>
<path d="M665.74 515.666C675.96 526.562 674.865 542.637 679.793 555.855C685.086 570.323 694.394 582.826 702.972 595.507C711.915 608.725 720.858 623.014 722.5 639.268C723.96 653.557 719.215 668.382 707.17 677.135C706.622 677.492 707.17 678.563 707.717 678.206C726.698 665.525 726.516 639.625 718.668 620.692C708.082 595.507 686.181 576.395 678.881 549.782C675.595 537.993 675.413 524.597 666.105 515.309C665.923 514.773 665.375 515.309 665.74 515.666Z" fill="white"/>
<path d="M665.741 526.021C664.828 539.417 670.851 551.563 676.144 563.53C679.246 570.317 681.437 577.462 684.539 584.428C687.459 591.215 691.84 597.11 696.037 603.183C711.916 626.045 711.916 656.053 696.402 679.094C696.037 679.809 696.95 680.345 697.497 679.809C711.551 659.625 713.193 631.94 701.695 610.327C698.227 603.719 693.3 598.181 689.467 591.751C685.269 584.785 682.897 577.105 679.976 569.782C674.136 555.671 665.558 541.918 666.471 526.021C666.471 525.485 665.923 525.485 665.741 526.021Z" fill="white"/>
<path d="M651.869 502.449C658.257 516.202 656.067 532.099 659.352 546.567C662.637 561.214 668.843 574.967 675.048 588.72C681.801 603.724 689.284 618.728 694.941 634.267C697.496 641.412 698.592 648.735 697.679 656.237C697.314 659.809 696.401 663.382 695.124 666.954C694.576 668.204 690.014 679.993 687.458 677.849C686.911 677.314 685.816 678.207 686.546 678.742C692.021 683.744 697.861 663.024 698.409 660.167C700.782 648.199 697.861 637.482 693.116 626.587C687.093 613.012 681.071 599.437 675.048 585.862C669.208 572.466 663.185 559.07 660.082 544.781C657.162 530.67 658.805 515.488 652.417 502.27C652.417 501.556 651.687 501.913 651.869 502.449Z" fill="white"/>
<path d="M636.173 492.794C644.386 507.619 644.934 524.231 645.299 540.842C645.664 556.917 647.124 572.635 652.234 587.996C657.527 604.25 665.375 619.611 669.39 636.223C671.215 644.082 672.31 652.298 671.763 660.336C671.398 664.444 670.85 668.552 669.573 672.66C668.843 674.804 668.113 676.947 667.018 679.09C666.652 679.983 666.105 680.698 665.74 681.591C665.192 683.02 664.097 683.913 662.637 684.449C662.82 683.913 661.907 683.556 661.725 684.092C660.447 686.056 663.002 687.128 664.645 685.878C666.652 684.449 667.93 680.698 668.843 678.554C670.12 675.697 671.033 672.839 671.763 669.802C674.865 656.763 673.04 643.01 669.208 630.328C664.462 614.61 657.162 599.606 652.234 583.888C647.672 568.527 646.941 552.988 646.394 537.27C645.846 521.909 644.934 506.19 636.721 492.616C636.539 491.901 635.991 492.258 636.173 492.794Z" fill="white"/>
<path d="M624.494 491.37C631.247 504.945 630.699 520.127 631.064 534.952C631.429 549.42 633.802 563.352 636.357 577.641C639.094 592.287 642.197 607.113 647.125 621.223C648.402 624.617 650.045 628.011 650.41 631.762C650.958 636.227 649.132 640.335 647.307 644.265C644.752 649.802 643.657 655.339 643.657 661.59C643.657 665.877 644.022 669.985 643.84 674.272C643.84 677.13 642.38 681.059 643.11 683.739C643.657 685.703 646.03 686.061 646.03 683.56C646.03 683.381 645.847 683.024 645.665 683.024C645.482 683.024 645.3 683.024 645.3 682.846C644.752 682.667 644.387 683.56 644.935 683.739C644.205 683.381 645.482 672.129 645.482 671.057C645.482 666.77 645.117 662.662 645.3 658.375C645.665 653.195 646.942 648.909 649.132 644.265C650.41 641.585 651.688 638.906 652.053 635.87C653.148 628.725 648.767 621.223 646.577 614.436C643.84 606.041 641.832 597.289 640.007 588.537C636.357 571.389 632.889 553.885 632.342 536.381C631.977 521.02 632.342 505.123 625.041 491.012C624.859 490.655 624.311 491.012 624.494 491.37Z" fill="white"/>
<path d="M616.463 489.404C622.121 518.518 613.543 547.811 615.916 577.282C617.011 591.393 620.844 604.968 623.216 618.9C624.494 626.759 628.509 638.19 622.851 644.799C619.566 648.729 616.828 652.837 615.003 657.481C610.623 668.734 611.353 681.415 617.193 691.954C617.376 692.311 618.106 692.489 618.471 692.132C619.566 691.239 620.479 690.346 621.391 689.274C621.756 688.917 621.209 688.024 620.661 688.381C619.566 689.274 618.471 690.167 617.376 691.06C617.741 691.06 618.106 691.239 618.654 691.239C612.631 679.808 612.448 666.054 618.289 654.444C619.566 651.765 621.391 649.264 623.399 646.942C624.859 645.335 626.501 643.727 627.231 641.584C628.144 639.262 627.596 636.583 627.414 634.082C626.866 630.331 626.319 626.58 625.771 622.829C623.399 608.004 619.201 593.179 617.741 578.176C616.463 564.065 617.741 549.776 618.836 535.665C619.931 520.125 620.661 504.586 617.376 489.225C617.193 488.868 616.463 489.046 616.463 489.404Z" fill="white"/>
<path d="M608.982 489.937C606.61 521.552 603.324 553.346 603.689 585.139C603.872 600.857 605.332 616.397 606.61 632.115C606.975 636.045 606.975 639.974 605.515 643.725C604.054 647.119 601.134 649.619 598.944 652.477C595.294 657.3 593.469 663.015 592.374 668.731C591.096 676.233 588.359 693.38 599.309 695.881C600.222 696.059 600.587 694.809 599.674 694.452C593.286 692.666 592.739 684.985 592.921 679.627C593.104 673.375 593.834 666.945 596.024 661.051C598.397 654.799 603.689 650.87 606.61 645.154C609.165 640.153 608.435 634.437 607.887 629.079C604.784 599.428 604.967 569.957 606.61 540.307C607.705 523.517 608.617 506.727 609.53 489.937C609.712 489.58 608.982 489.58 608.982 489.937Z" fill="white"/>
<path d="M600.586 485.122C591.643 515.486 588.906 547.101 588.176 578.537C587.811 594.97 588.176 611.224 588.358 627.657C588.358 631.586 588.541 635.516 588.541 639.445C588.541 644.982 586.716 648.555 582.153 651.948C577.225 655.521 572.662 659.45 569.377 664.63C563.72 673.918 564.815 688.207 576.13 692.851C576.86 693.209 577.408 691.958 576.678 691.601C570.655 688.565 567.187 682.492 567.552 675.704C567.917 668.202 572.662 661.772 578.138 657.128C581.97 653.735 587.628 651.234 589.453 646.411C590.366 643.732 590.183 640.696 590.183 638.016C590.183 634.087 590.001 630.157 590.001 626.228C589.453 596.399 589.088 566.392 592.008 536.563C593.834 519.237 596.754 502.269 601.316 485.479C601.316 484.943 600.769 484.764 600.586 485.122Z" fill="white"/>
<path d="M587.445 489.227C576.495 519.591 576.13 551.563 575.4 583.357C575.035 599.968 574.487 616.579 572.297 633.191C571.75 637.299 571.567 642.122 568.465 645.158C565.909 647.659 562.259 648.73 559.157 650.338C554.594 652.66 550.761 656.232 548.023 660.519C541.636 670.164 540.358 683.56 546.563 693.741C547.111 694.634 548.388 693.92 547.841 693.027C542.001 681.953 543.278 668.199 551.674 658.554C556.054 653.553 561.529 651.945 567.004 648.552C572.115 645.337 573.027 640.871 573.757 635.334C578.137 604.612 576.312 573.533 578.32 542.811C579.598 524.771 582.153 506.91 587.993 489.763C588.358 489.048 587.628 488.869 587.445 489.227Z" fill="white"/>
<path d="M571.931 493.161C560.98 525.312 561.163 559.427 557.878 592.65C556.965 601.759 555.87 610.869 554.045 619.799C552.585 627.837 551.49 638.375 544.737 643.734C539.262 648.199 531.779 649.45 526.121 653.736C521.558 657.309 518.273 662.31 516.448 667.668C513.528 675.706 508.6 702.856 524.844 700.355C525.756 700.176 525.574 698.926 524.661 698.926C512.981 699.819 514.806 683.565 516.083 676.421C517.178 669.812 519.551 663.203 524.114 658.023C532.326 648.914 546.927 649.271 551.855 636.947C554.593 629.981 555.688 622.122 556.965 614.62C558.243 607.296 558.973 599.973 559.703 592.65C561.163 577.289 561.893 561.749 563.353 546.388C564.996 528.527 567.551 510.665 573.208 493.34C573.208 492.804 572.113 492.447 571.931 493.161Z" fill="white"/>
<path d="M554.409 517.276C548.933 531.208 544.918 545.676 542.728 560.322C540.538 574.611 540.721 589.079 539.078 603.547C537.435 617.836 532.873 632.126 521.192 641.592C512.797 648.38 501.481 652.845 496.371 662.848C491.261 672.493 494.728 685.174 503.854 691.069C504.584 691.605 505.496 690.354 504.766 689.997C493.998 681.781 492.903 667.134 502.576 657.668C510.242 649.987 520.827 646.058 527.945 637.841C545.101 618.194 540.721 589.437 543.641 565.681C545.648 549.248 549.664 533.173 555.321 517.633C555.321 516.919 554.591 516.74 554.409 517.276Z" fill="white"/>
<path d="M537.073 543.524C533.971 551.74 531.05 559.957 528.86 568.53C526.853 576.568 526.123 584.784 524.663 592.822C521.925 608.897 515.355 623.365 503.127 634.618C492.541 644.442 476.115 648.55 470.092 662.482C465.712 672.306 468.632 685.166 479.583 689.274C480.313 689.453 480.678 688.381 480.13 688.202C473.378 684.809 469.362 678.021 469.91 670.698C470.275 662.482 475.933 655.337 482.503 650.693C487.978 646.764 494.184 644.084 499.659 639.976C504.587 636.225 508.784 631.76 512.617 626.937C521.012 615.863 524.845 603.539 526.853 589.964C527.948 582.284 528.86 574.782 530.685 567.28C532.693 559.242 535.248 551.562 537.986 543.703C537.986 543.167 537.256 542.988 537.073 543.524Z" fill="white"/>
<path d="M522.837 556.566C512.616 584.43 502.396 614.08 478.852 634.442C473.377 639.265 467.172 642.48 460.966 646.41C456.039 649.446 452.936 653.911 451.111 659.27C446.731 671.237 447.096 685.526 452.571 697.136C452.936 697.851 454.213 697.315 454.031 696.601C449.103 683.204 447.461 666.057 456.039 653.554C460.054 647.66 467.537 645.159 473.194 641.23C478.122 637.657 482.867 633.728 487.065 629.262C506.046 609.079 515.536 582.644 523.932 556.923C523.932 556.209 523.019 556.03 522.837 556.566Z" fill="white"/>
<path d="M506.592 576.038C496.737 583.718 494.729 596.578 488.889 606.938C481.771 619.798 468.996 628.193 458.045 637.66C448.372 645.876 438.882 655.7 436.326 668.382C434.319 678.206 436.326 689.637 444.904 695.888C445.452 696.246 446.182 695.353 445.634 694.995C436.509 686.065 435.231 673.204 440.342 661.952C445.817 649.806 456.767 641.232 466.805 632.837C476.113 625.335 485.421 617.476 490.897 606.759C496.189 596.578 498.197 584.611 507.322 576.931C507.687 576.216 506.957 575.68 506.592 576.038Z" fill="white"/>
<g opacity="0.62">
<path opacity="0.62" d="M697.68 599.975C690.562 599.082 683.626 596.76 677.239 593.188C675.414 592.116 673.771 590.866 672.858 589.079C671.398 586.222 672.676 582.649 674.319 579.791C677.239 574.076 680.706 568.717 682.896 562.823C685.087 556.929 686.182 550.32 683.991 544.247C683.079 541.568 681.984 538.889 681.071 536.209C675.596 529.065 669.756 522.277 663.733 515.669C655.338 506.559 646.395 497.986 635.627 491.734C624.859 485.661 612.083 482.267 599.672 484.411C581.604 487.447 567.733 501.558 557.513 516.383C547.11 531.208 538.897 547.641 525.574 559.787L464.798 624.445C459.14 629.447 439.064 646.594 436.692 659.633C432.311 683.567 456.585 686.246 505.133 686.246C515.171 686.246 526.304 686.246 538.167 686.246C544.555 684.103 550.942 681.96 557.33 679.816C568.098 676.244 579.231 672.493 590.547 673.743C597.482 674.458 603.505 677.673 610.44 678.03C618.653 678.387 626.866 678.566 635.079 678.923C635.627 678.923 635.992 678.923 636.357 678.744C637.452 678.03 636.357 676.422 635.627 675.351C634.349 673.207 635.444 670.35 637.269 668.742C639.094 667.134 641.467 666.241 643.839 665.348C665.558 658.025 686.547 648.737 705.528 636.055C710.638 632.662 715.566 628.911 718.486 623.552C721.406 618.194 721.771 611.228 717.756 606.584C713.01 600.69 704.798 600.868 697.68 599.975Z" fill="#D7E9F2"/>
</g>
<path d="M571.563 413.498C570.468 414.748 570.103 416.177 569.921 417.785C569.556 419.928 569.738 422.25 570.468 424.393C571.016 426.18 571.746 427.966 572.476 429.752C572.841 430.824 573.206 431.895 573.753 432.967C574.301 434.039 575.214 434.753 576.309 435.11C576.674 435.11 577.039 435.289 577.404 435.11C578.134 434.753 578.316 433.86 578.499 433.146C579.229 427.43 578.134 421.714 576.856 416.177C576.491 414.927 576.126 413.498 575.031 412.783" fill="#2A3047"/>
<path d="M577.949 431.359C577.767 430.466 577.219 429.573 576.489 429.037C576.307 428.859 575.942 428.68 575.577 428.501C574.847 428.323 574.117 428.859 573.569 429.573C573.022 430.109 572.474 430.823 572.292 431.538C571.744 433.145 572.474 435.467 573.569 436.718C574.664 438.147 577.402 439.397 578.679 437.254" fill="#F2BEB0"/>
<path d="M569.369 666.952C569.369 666.952 554.404 670.346 550.936 671.953C544.731 674.811 537.43 680.527 534.693 679.634C532.502 678.919 533.232 674.811 534.51 671.775C535.605 669.274 539.438 667.131 542.905 663.558C545.643 660.879 549.293 662.487 551.118 661.951C552.396 661.594 569.734 651.591 569.734 651.591" fill="#F2BEB0"/>
<path d="M575.214 633.907C578.134 636.765 592.187 636.944 592.187 636.944L558.605 660.164L561.343 669.452C561.343 669.452 667.928 658.735 704.248 631.407C723.229 617.118 719.031 604.793 712.461 596.934C693.297 574.607 612.263 590.682 612.263 590.682L570.469 587.646" fill="#657E9E"/>
<path d="M605.14 666.949C605.14 666.949 619.376 670.343 622.661 671.772C628.684 674.451 633.977 679.988 636.532 679.095C638.722 678.559 638.539 674.451 637.262 671.593C636.167 669.093 633.247 667.485 630.144 663.734C628.136 661.412 624.121 663.556 622.296 663.198C621.201 662.841 604.41 652.303 604.41 652.303" fill="#F2BEB0"/>
<path d="M601.311 633.906C598.391 636.763 589.265 640.336 589.265 640.336L617.737 659.983L614.999 669.272C614.999 669.272 511.699 656.768 473.555 632.119C454.574 619.974 456.216 605.506 464.064 598.897C489.433 577.463 564.262 590.502 564.262 590.502L600.398 592.11L601.311 633.906Z" fill="#657E9E"/>
<path d="M505.676 594.612C505.676 594.612 520.824 596.577 541.995 608.544C552.581 614.617 617.736 660.164 617.736 660.164" stroke="#4E6A89" stroke-width="0.75" stroke-miterlimit="10"/>
<path d="M670.663 594.612C670.663 594.612 655.515 596.577 634.344 608.544C623.758 614.617 588.352 639.266 588.352 639.266" stroke="#4E6A89" stroke-width="0.75" stroke-miterlimit="10"/>
<path d="M559.516 660.88C570.831 663.738 587.987 665.345 587.987 665.345" stroke="#4E6A89" stroke-width="0.75" stroke-miterlimit="10"/>
<path d="M544.191 499.411C543.643 529.954 533.788 567.285 530.32 587.111C540.723 597.292 572.115 602.651 590.183 603.722C608.252 604.794 641.833 600.507 655.887 586.754C655.887 586.754 641.103 495.66 634.716 482.8L610.077 456.186L573.94 459.401L544.191 499.411Z" fill="#D39285"/>
<path d="M576.494 456.193C576.494 456.193 552.768 458.515 534.334 476.555C516.266 494.238 485.24 552.11 503.49 563.541C531.414 581.045 560.068 515.315 560.981 511.921" fill="#D39285"/>
<path d="M606.242 455.474C606.242 455.474 625.223 457.974 641.466 470.299C651.869 477.979 658.805 489.946 664.098 501.378C669.755 513.345 674.318 526.205 676.326 539.244C678.151 550.497 676.691 564.965 662.273 566.751C653.695 567.823 645.664 561.571 640.006 556.034C628.508 544.781 619.565 530.492 612.265 516.203C612.265 516.024 612.083 515.846 612.083 515.667" fill="#D39285"/>
<path d="M582.15 440.288L581.785 454.935C581.785 454.935 577.039 456.363 573.754 456.542C573.389 457.971 573.207 466.723 589.45 466.723C605.693 466.723 609.891 456.363 609.891 456.363L602.226 454.756L598.393 431" fill="#F2BEB0"/>
<path d="M574.664 415.82C571.927 426.001 577.584 444.22 583.972 446.006C586.527 446.72 594.375 446.72 598.39 441.898C602.588 437.075 605.691 430.645 605.326 425.465C604.231 412.426 577.402 405.639 574.664 415.82Z" fill="#F2BEB0"/>
<path d="M610.438 421.71C610.256 423.854 609.708 425.819 608.978 427.783C608.248 429.569 606.97 432.07 605.328 433.142C602.773 434.928 603.138 430.284 603.138 429.034C603.138 426.712 602.955 424.39 602.408 422.068C602.043 420.639 601.313 419.21 600.4 417.959C600.035 417.245 599.487 416.709 598.757 416.352C597.48 415.638 594.742 415.28 593.282 415.637C591.274 415.995 589.814 417.424 587.807 417.959C585.799 418.495 583.792 417.781 581.784 417.959C579.594 418.317 577.769 419.031 575.579 418.853C570.103 418.674 565.723 411.529 567.001 406.528C567.548 404.563 569.008 403.134 570.833 402.063C573.936 400.277 577.586 397.061 581.602 397.776C583.792 398.133 585.069 400.455 587.442 400.098C588.172 399.919 588.719 399.562 589.267 399.205C593.282 397.061 598.575 398.133 601.495 401.705C602.408 402.956 603.138 404.206 604.233 405.456C606.788 408.136 609.525 409.386 610.438 413.315C610.803 415.816 610.803 418.853 610.438 421.71Z" fill="#2A3047"/>
<path d="M600.035 430.466C600.217 429.573 600.765 428.68 601.495 428.144C601.677 427.965 602.042 427.786 602.407 427.608C603.137 427.429 603.867 427.965 604.415 428.68C604.962 429.215 605.51 429.93 605.693 430.644C606.24 432.252 605.51 434.574 604.415 435.824C603.32 437.253 600.582 438.503 599.305 436.36" fill="#F2BEB0"/>
<path d="M598.394 424.389C598.394 424.21 598.576 424.032 598.394 423.853C598.211 423.674 598.029 423.496 597.846 423.317C595.473 421.888 592.371 422.246 591.823 422.424C591.458 422.603 590.911 423.674 591.458 424.21C591.641 424.389 594.013 423.853 596.933 424.925C597.298 425.103 597.846 425.103 598.211 424.925C598.211 424.746 598.394 424.568 598.394 424.389Z" fill="#5E3643"/>
<path d="M576.491 424.396C576.491 424.217 576.309 424.038 576.491 423.86C576.491 423.681 576.856 423.502 577.039 423.324C579.229 421.895 582.332 421.895 582.879 422.074C583.244 422.074 583.792 423.145 583.427 423.681C583.244 423.86 580.871 423.502 578.134 424.753C577.769 424.931 577.404 424.931 576.856 424.753C576.856 424.753 576.674 424.574 576.491 424.396Z" fill="#5E3643"/>
<path d="M594.195 427.964C594.012 427.785 594.012 427.785 593.83 427.606C593.465 427.606 592.917 427.606 592.735 427.964C592.37 428.857 592.735 430.286 593.83 430.286C594.742 430.286 594.742 428.678 594.195 427.964Z" fill="#5E3643"/>
<path d="M581.785 428.144C581.785 427.966 581.602 427.787 581.419 427.787C581.054 427.608 580.507 427.608 580.324 427.787C579.777 428.502 579.777 430.109 580.872 430.288C581.785 430.466 582.15 428.859 581.785 428.144Z" fill="#5E3643"/>
<path d="M586.896 428.145C586.896 428.145 585.618 435.29 586.896 435.826C588.173 436.54 590.911 435.468 590.911 435.468" stroke="#DD816C" stroke-width="0.5" stroke-miterlimit="10"/>
<path d="M584.887 439.216C585.069 444.217 591.64 444.038 592.187 438.858L584.887 439.216Z" fill="white"/>
<path d="M562.438 478.331L561.891 474.758L563.533 474.044L588.172 484.761L612.263 474.044L614.271 475.651L609.89 507.445L566.088 503.873L562.438 478.331Z" fill="white"/>
<path d="M589.996 485.293L590.179 519.051L610.985 507.799C611.167 507.62 611.35 507.441 611.532 507.084L615.547 475.291C615.547 474.755 615 474.398 614.635 474.576L589.996 485.293Z" fill="#5E3643"/>
<path d="M586.344 485.3L586.162 519.058L565.356 507.805C565.173 507.627 564.991 507.448 564.808 507.091L560.793 475.297C560.793 474.761 561.34 474.404 561.706 474.583L586.344 485.3Z" fill="#5E3643"/>
<path d="M586.343 485.296H589.993L590.175 519.233H586.16L586.343 485.296Z" fill="#3D232C"/>
<path opacity="0.11" d="M593.098 487.797V496.906L610.983 489.404L611.896 479.58L593.098 487.797Z" fill="white"/>
<path d="M582.879 445.644C582.879 445.644 584.886 447.609 589.997 447.073C595.107 446.537 599.305 440.821 599.305 440.821" stroke="#DD816C" stroke-width="0.5" stroke-miterlimit="10"/>
<path d="M617.737 512.096C617.737 506.023 616.277 501.022 612.809 496.735L612.444 500.129C611.349 497.628 607.699 492.805 606.787 493.52C605.874 494.234 610.254 499.95 610.984 502.808C610.254 501.379 608.977 499.95 607.882 498.343C606.239 495.663 604.596 493.341 604.049 493.699C602.954 494.234 604.596 497.985 605.692 499.593C606.969 501.558 608.064 502.808 609.342 504.773C607.882 503.344 606.787 502.093 605.509 500.307C604.596 499.057 602.589 495.485 602.041 495.842C601.311 496.378 602.224 499.414 602.954 500.665C604.231 502.629 605.509 504.415 606.787 506.38C604.596 505.309 601.859 500.486 600.946 501.379C600.034 502.093 603.136 506.38 604.596 508.166C606.969 511.024 609.524 513.525 612.444 515.847" fill="#F2BEB0"/>
<path d="M652.231 564.965C652.231 564.965 632.338 558.892 612.262 515.667" stroke="#A87162" stroke-width="0.5" stroke-miterlimit="10"/>
<path d="M617.738 512.093C617.738 512.093 648.582 526.025 660.628 537.814" stroke="#A87162" stroke-width="0.5" stroke-miterlimit="10"/>
<path d="M645.114 526.383C645.114 526.383 638.727 499.054 632.156 488.159" stroke="#A87162" stroke-width="0.5" stroke-miterlimit="10"/>
<path d="M554.773 512.096C554.773 506.023 556.233 501.022 559.701 496.735L560.066 500.129C561.161 497.628 564.811 492.805 565.724 493.52C566.637 494.234 562.256 499.95 561.526 502.808C562.256 501.379 563.534 499.95 564.629 498.343C566.272 495.663 567.914 493.341 568.462 493.699C569.557 494.234 567.914 497.985 566.819 499.593C565.541 501.558 564.446 502.808 563.169 504.773C564.629 503.344 565.724 502.093 567.002 500.307C567.914 499.057 569.922 495.485 570.469 495.842C571.199 496.378 570.287 499.414 569.557 500.665C568.279 502.629 567.002 504.415 565.724 506.38C567.914 505.309 570.652 500.486 571.564 501.379C572.477 502.093 569.374 506.38 567.914 508.166C565.541 511.024 562.986 513.525 560.066 515.847" fill="#F2BEB0"/>
<path d="M520.277 564.964C520.277 564.964 540.171 558.891 560.247 515.667" stroke="#A87162" stroke-width="0.5" stroke-miterlimit="10"/>
<path d="M554.772 512.093C554.772 512.093 523.928 526.025 511.883 537.814" stroke="#A87162" stroke-width="0.5" stroke-miterlimit="10"/>
<path d="M542.906 517.811C542.906 517.811 546.191 502.093 552.214 488.518" stroke="#A87162" stroke-width="0.5" stroke-miterlimit="10"/>
<path d="M266.776 685.531H209.285V702.857H266.776V685.531Z" fill="#AF7961"/>
<path d="M218.778 685.531H215.676V702.857H218.778V685.531Z" fill="#CC937D"/>
<path d="M262.759 685.531H259.656V702.857H262.759V685.531Z" fill="#CC937D"/>
<path d="M222.425 685.531H220.965V702.857H222.425V685.531Z" fill="#CC937D"/>
<path d="M266.777 702.677L289.774 691.246V673.92L266.777 685.53V702.677Z" fill="#BC7D69"/>
<path d="M266.777 700.712L289.774 689.102V676.063L266.777 687.494V700.712Z" fill="#FFFFEB"/>
<path d="M289.772 673.92H232.281L209.285 685.53H266.775L289.772 673.92Z" fill="#CC937D"/>
<path d="M241.59 675.71H238.305L222.609 683.569H225.712L241.59 675.71Z" fill="#AF7961"/>
<path d="M153.62 703.927H90.2891V711.071H153.62V703.927Z" fill="#AF7961"/>
<path d="M153.621 711.074L178.99 701.25V694.105L153.621 703.929V711.074Z" fill="#BC7D69"/>
<path d="M153.621 709.291L178.99 699.467V695.895L153.621 705.719V709.291Z" fill="#EAC5B7"/>
<path d="M178.988 694.107H115.658L90.2891 703.931H153.62L178.988 694.107Z" fill="#CC937D"/>
<path d="M136.098 695.536H124.783L107.262 702.323H118.76L136.098 695.536Z" fill="#AF7961"/>
<path d="M272.616 708.93H209.285V718.218H272.616V708.93Z" fill="#BACED8"/>
<path d="M219.87 708.93H216.402V718.218H219.87V708.93Z" fill="#9DB6C1"/>
<path d="M268.054 708.93H264.586V718.218H268.054V708.93Z" fill="#9DB6C1"/>
<path d="M223.885 708.93H222.242V718.218H223.885V708.93Z" fill="#9DB6C1"/>
<path d="M272.434 718.217L297.802 705.535V696.247L272.434 708.929V718.217Z" fill="#CADAE0"/>
<path d="M272.434 716.073L297.802 703.392V698.569L272.434 711.251V716.073Z" fill="#FFFFEB"/>
<path d="M297.802 696.247H234.654L209.285 708.929H272.433L297.802 696.247Z" fill="#DFEAEF"/>
<path d="M287.947 698.389H276.631L259.293 706.963H270.609L287.947 698.389Z" fill="#CADAE0"/>
<path d="M271.52 698.389H267.87L250.531 706.963H254.181L271.52 698.389Z" fill="#CADAE0"/>
<path d="M603.87 705.717H540.539V715.005H603.87V705.717Z" fill="#BACED8"/>
<path d="M551.124 705.717H547.656V715.005H551.124V705.717Z" fill="#9DB6C1"/>
<path d="M599.308 705.717H595.84V715.005H599.308V705.717Z" fill="#9DB6C1"/>
<path d="M555.143 705.717H553.5V715.005H555.143V705.717Z" fill="#9DB6C1"/>
<path d="M603.688 715.004L629.056 702.322V693.034L603.688 705.716V715.004Z" fill="#CADAE0"/>
<path d="M603.688 712.683L629.056 700.001V695.357L603.688 708.039V712.683Z" fill="#FFFFEB"/>
<path d="M629.056 693.033H565.908L540.539 705.715H603.687L629.056 693.033Z" fill="#DFEAEF"/>
<path d="M619.204 695.004H607.888L590.367 703.756H601.865L619.204 695.004Z" fill="#CADAE0"/>
<path d="M602.591 695.004H599.124L581.785 703.756H585.253L602.591 695.004Z" fill="#CADAE0"/>
<path d="M260.389 699.823H202.898V710.004H260.389V699.823Z" fill="#E89C8B"/>
<path d="M212.571 699.823H209.469V710.004H212.571V699.823Z" fill="#CC937D"/>
<path d="M256.372 699.823H253.27V710.004H256.372V699.823Z" fill="#CC937D"/>
<path d="M216.222 699.823H214.762V710.004H216.222V699.823Z" fill="#CC937D"/>
<path d="M260.391 710.003L283.387 698.572V688.391L260.391 699.822V710.003Z" fill="#EDB3A4"/>
<path d="M260.391 708.043L283.387 696.433V690.36L260.391 701.97V708.043Z" fill="#FFFFEB"/>
<path d="M283.385 688.391H225.895L202.898 699.822H260.389L283.385 688.391Z" fill="#F4C7B3"/>
<path d="M235.204 690.181H231.918L216.223 698.04H219.508L235.204 690.181Z" fill="#EDB3A4"/>
<path d="M670.486 700.889H612.996V718.215H670.486V700.889Z" fill="#72545F"/>
<path d="M666.47 700.889H663.367V718.215H666.47V700.889Z" fill="#7F6E75"/>
<path d="M626.136 700.889H624.676V718.215H626.136V700.889Z" fill="#7F6E75"/>
<path d="M670.488 718.215L693.484 706.783V689.458L670.488 700.889V718.215Z" fill="#7F6E75"/>
<path d="M670.488 716.249L693.484 704.639V691.6L670.488 703.032V716.249Z" fill="#E2E2D3"/>
<path d="M693.483 689.458H635.992L612.996 700.889H670.486L693.483 689.458Z" fill="#A08E97"/>
<path d="M653.149 691.248H642.016L626.32 699.107H637.453L653.149 691.248Z" fill="#B7A7B0"/>
<path d="M486.515 718.932H497.649C501.299 718.932 504.401 716.075 504.401 712.502V696.427H479.945V712.502C479.763 716.075 482.865 718.932 486.515 718.932Z" fill="#DFEAEF"/>
<path d="M484.662 720.554H499.445V717.874H484.662V720.554Z" fill="#DFEAEF"/>
<path d="M496.371 714.823H505.861C507.869 714.823 509.329 713.215 509.329 711.429V704.284C509.329 702.32 507.687 700.891 505.861 700.891H496.371V714.823Z" stroke="#DFEAEF" stroke-width="2" stroke-miterlimit="10"/>
<path d="M127.565 730.279C127.553 730.279 127.54 730.28 127.527 730.281L15.2903 738.798C15.0223 738.818 14.8183 739.047 14.8285 739.315C14.8387 739.584 15.0593 739.796 15.3281 739.796H127.565C127.631 739.796 127.696 739.784 127.756 739.759L148.388 731.241C148.608 731.15 148.734 730.916 148.687 730.682C148.641 730.448 148.436 730.279 148.197 730.279H127.565Z" fill="#BACED8" stroke="#9DB6C1" stroke-linejoin="round"/>
<path d="M0.220076 668.935L13.4756 740.183C13.5637 740.656 13.977 741 14.4587 741H123.107C123.746 741 124.221 740.408 124.083 739.784L108.342 668.536C108.241 668.078 107.835 667.752 107.366 667.752H1.20321C0.577639 667.752 0.105655 668.32 0.220076 668.935Z" fill="#BACED8"/>
<circle cx="60.4708" cy="706.079" r="11.0724" fill="#9DB6C1"/>
<path d="M335.627 631.882L360.896 698.186L354.622 699.461C354.622 699.461 310.358 656.109 305.652 639.715" fill="#F2BEB0"/>
<path d="M354.623 687.072C354.623 687.072 356.366 691.261 357.237 692.718C358.108 694.175 359.328 695.268 360.722 696.179C365.079 699.276 370.307 701.28 375.013 704.012C375.71 704.376 376.232 705.105 376.058 705.651C375.884 706.016 375.361 707.655 371.527 707.291C362.988 706.198 359.502 708.384 356.017 706.562C354.623 705.833 354.971 703.465 354.797 702.008C354.623 700.369 354.1 698.729 353.926 697.09" fill="#F2BEB0"/>
<path d="M354.099 702.559C353.75 701.284 351.659 696.913 350.613 696.366C350.091 696.002 349.742 695.273 349.916 694.727C351.311 694.727 352.356 694.362 353.576 693.816C354.622 693.27 355.493 692.541 356.364 691.812C357.062 691.266 357.236 690.355 357.584 689.626C359.153 689.626 358.456 692.905 360.721 695.455C361.418 696.184 361.941 696.73 362.812 697.277C364.032 698.188 365.252 698.916 366.646 699.463C367.866 700.009 369.086 700.556 370.306 701.102C371.526 701.649 372.746 702.013 373.791 702.559C375.011 703.106 376.057 703.47 377.103 704.199C377.451 704.381 377.974 704.745 377.974 705.292C378.148 705.656 377.974 706.02 377.8 706.385C377.277 707.295 376.231 707.842 375.186 708.206C371.177 709.481 366.821 707.477 362.638 707.842C360.721 708.024 358.63 708.57 356.713 708.388C356.19 708.388 355.842 708.206 355.493 707.842C354.97 707.477 354.622 706.202 354.447 705.474C354.273 704.563 354.273 703.652 354.099 702.741C354.273 702.741 354.273 702.742 354.099 702.559Z" fill="#DC685A"/>
<path d="M357.934 612.756L391.394 674.87L385.295 677.056C385.295 677.056 335.976 640.261 329.18 624.596" fill="#F2BEB0"/>
<path d="M383.727 664.851C383.727 664.851 385.992 668.676 387.038 670.133C388.083 671.408 389.478 672.319 390.872 673.048C395.751 675.598 400.979 676.691 406.033 678.877C406.73 679.241 407.427 679.787 407.253 680.516C407.253 681.062 406.905 682.702 403.071 682.702C394.531 682.702 391.22 685.434 387.561 684.159C386.166 683.613 386.166 681.245 385.818 679.969C385.469 678.33 384.772 676.873 384.424 675.234" fill="#F2BEB0"/>
<path d="M385.297 680.332C384.775 679.057 382.161 675.232 380.941 674.685C380.418 674.503 379.895 673.774 380.069 673.046C381.464 672.864 382.509 672.499 383.729 671.589C384.6 670.86 385.472 670.131 386.169 669.22C386.692 668.492 386.866 667.763 387.214 666.852C388.783 666.67 388.434 669.949 391.223 672.135C391.92 672.681 392.617 673.228 393.488 673.592C394.708 674.321 396.102 674.867 397.496 675.232C398.716 675.596 400.11 675.96 401.33 676.324C402.55 676.689 403.77 677.053 404.99 677.235C406.21 677.6 407.43 677.964 408.475 678.51C408.824 678.692 409.347 679.057 409.521 679.421C409.695 679.785 409.521 680.15 409.521 680.696C409.172 681.789 408.127 682.336 407.256 682.882C403.422 684.704 398.891 683.428 394.708 684.339C392.791 684.704 390.874 685.614 388.783 685.614C388.26 685.614 387.911 685.614 387.563 685.25C387.04 684.886 386.517 683.793 386.169 683.064C385.82 682.153 385.82 681.243 385.472 680.332C385.472 680.514 385.297 680.514 385.297 680.332Z" fill="#DC685A"/>
<path d="M287.181 500.182C285.438 498.907 284.392 496.721 284.218 494.353C284.044 492.168 284.392 489.8 284.741 487.614C285.09 485.792 285.264 484.153 285.612 482.331C285.787 481.785 285.787 481.238 286.309 480.874C286.832 480.692 287.355 480.874 287.704 481.239C288.052 481.603 288.226 482.149 288.226 482.696C288.401 483.606 288.401 484.517 288.401 485.428C288.401 485.974 288.226 486.521 288.401 487.067C288.575 487.614 288.749 488.16 289.272 488.342C290.318 488.707 291.189 487.249 292.235 486.885C292.409 486.885 292.409 486.885 292.583 486.885C292.757 486.885 292.932 487.25 292.932 487.432C293.455 489.435 292.409 491.439 291.363 493.261C290.318 494.9 289.272 496.721 288.401 498.361" fill="#F2BEB0"/>
<path d="M192.488 611.594C192.488 611.594 196.125 645.875 219.157 654.175C242.19 662.475 289.813 644.432 289.813 644.432L303.667 674.563C303.667 674.563 361.508 657.784 369.647 631.982C361.508 615.744 336.57 573.523 310.767 570.817C294.835 569.193 254.312 580.199 242.363 578.936" fill="#5E3643"/>
<path d="M184.447 563.839C184.447 562.926 170.344 532.788 170.344 532.788L177.48 500.458L189.035 486.577L209.425 485.481L238.482 527.674L184.447 563.839Z" fill="#F2BEB0"/>
<path d="M204.41 485.481C204.41 485.481 226.521 486.04 235.226 492.94C250.198 504.688 264.126 530.608 264.126 530.608L286.933 495.177L291.286 496.11C291.286 496.11 283.8 553.731 266.738 556.901C253.68 559.325 226.869 525.573 226.869 525.573" fill="#F2BEB0"/>
<path d="M234.765 512.736C234.765 512.736 241.505 521.708 244.342 533.552C247.18 545.395 249.485 564.776 251.968 570.339C253.387 573.389 255.515 577.158 255.515 577.158C255.515 577.158 244.697 593.667 214.548 607.843C201.069 614.303 189.542 620.225 183.867 630.274C181.561 626.147 174.644 575.901 175.531 547.01C182.27 537.141 184.576 526.554 184.576 526.554C184.576 526.554 203.375 518.837 217.385 515.787C231.751 512.916 234.765 512.736 234.765 512.736Z" fill="#DC685A"/>
<path d="M189.08 487.184C189.08 487.184 164.466 494.249 159.13 512.003C146.393 554.938 139.68 658.198 139.68 658.198C139.68 658.198 141.573 664.358 147.425 658.198C148.802 651.314 182.023 556.568 180.129 524.684" fill="#F2BEB0"/>
<path d="M152.26 528.896C156.418 504.172 169.298 493.058 175.218 490.591C184.315 499.732 184.748 517.579 185.614 525.849C186.48 534.119 177.817 543.696 178.683 545.872C179.55 548.048 177.384 556.754 176.517 558.495C175.824 559.888 157.47 554.726 148.37 551.969C148.107 553.511 148.183 553.041 148.361 551.966C148.364 551.967 148.367 551.968 148.37 551.969C148.746 549.763 149.813 543.444 152.26 528.896Z" fill="#DC685A"/>
<path d="M139.921 657.93C136.61 659.57 133.299 661.391 129.988 663.213C128.594 663.941 126.154 665.398 126.328 666.127C126.502 666.673 130.336 665.216 132.776 664.123C129.291 665.945 123.714 669.77 124.411 670.499C125.108 671.227 130.685 668.131 134.693 665.581C131.033 668.313 125.457 671.774 126.328 672.32C127.2 672.867 136.784 666.856 136.784 666.856C136.784 666.856 129.291 672.138 130.511 672.684C131.556 673.231 136.087 669.952 138.876 668.313C140.27 667.402 142.535 666.673 142.71 666.856C143.058 667.22 140.793 669.224 140.096 669.952C139.921 670.134 139.921 670.317 139.921 670.499C139.921 670.681 140.27 670.863 140.618 670.681C141.49 670.499 152.12 665.945 145.672 658.112" fill="#F2BEB0"/>
<path d="M294.848 491.078C294.848 491.078 296.242 484.885 295.719 481.606C295.371 479.602 294.325 477.963 293.279 476.324C293.105 476.141 292.931 475.777 292.582 475.595C292.234 475.413 291.885 475.595 291.711 475.777C291.711 475.959 291.711 476.141 291.711 476.324C291.885 478.509 293.105 480.331 293.454 482.517C293.628 483.428 292.931 487.617 292.931 488.892" fill="#F2BEB0"/>
<path d="M211.722 441.715C211.722 441.715 226.361 460.112 220.61 469.402C216.079 476.506 202.311 471.77 202.311 471.77C202.311 471.77 196.212 465.577 191.681 460.841C187.15 456.105 193.075 429.328 211.722 441.715Z" fill="#F2BEB0"/>
<path d="M205.1 456.288C205.274 456.834 205.971 457.199 206.32 457.016C206.842 456.834 206.842 456.106 206.668 455.559C206.494 455.013 205.797 454.648 205.448 454.831C205.1 455.013 204.925 455.741 205.1 456.288Z" fill="#5E3643"/>
<path d="M215.382 452.828C215.556 453.374 216.253 453.738 216.601 453.556C217.124 453.374 217.124 452.645 216.95 452.099C216.776 451.553 216.079 451.188 215.73 451.37C215.207 451.553 215.207 452.281 215.382 452.828Z" fill="#5E3643"/>
<path d="M218.693 462.295L212.07 464.846C212.07 464.846 214.162 467.942 216.601 467.031C219.912 465.756 218.693 462.295 218.693 462.295Z" fill="white"/>
<path d="M210.154 469.586C210.154 470.314 209.457 490.169 209.457 490.169C209.457 490.169 196.387 498.73 188.719 487.255L197.955 461.025" fill="#F2BEB0"/>
<path d="M212.07 454.284C212.07 454.284 216.776 457.927 216.427 459.202C216.079 460.477 212.593 461.024 212.593 461.024" stroke="#DD816C" stroke-width="0.5" stroke-miterlimit="10"/>
<path d="M211.374 450.097C211.897 449.733 212.419 449.369 212.942 449.186C213.465 449.004 213.988 449.186 214.511 448.822C214.685 448.64 214.685 448.458 214.685 448.276C213.814 447.001 211.374 448.458 210.851 449.733C210.677 449.915 211.025 450.279 211.374 450.097Z" fill="#5E3643"/>
<path d="M204.752 452.466C203.707 452.284 202.661 452.284 201.79 453.013C200.918 453.742 200.221 454.834 200.047 455.927C200.047 456.292 200.57 456.474 200.744 456.292C201.267 455.745 201.615 454.834 202.138 454.106C202.835 453.377 203.707 453.195 204.578 453.195C205.101 453.195 205.101 452.466 204.752 452.466Z" fill="#5E3643"/>
<path d="M209.978 472.862C209.978 472.862 205.97 472.68 203.355 471.951" stroke="#DD816C" stroke-width="0.5" stroke-miterlimit="10"/>
<path d="M186.625 478.142C189.413 478.688 192.202 479.053 194.99 479.053C195.687 479.053 196.384 479.053 196.907 478.688C197.953 477.96 198.301 476.32 198.127 474.863C198.127 470.856 197.255 467.213 197.255 463.205C197.43 459.744 197.953 456.466 198.65 453.187C199.521 449.908 201.612 447.176 202.832 444.261C203.181 443.715 204.575 439.525 205.446 439.525C205.62 439.525 205.795 439.525 205.969 439.525C208.409 440.618 214.16 444.079 216.251 448.451C218.691 437.34 207.189 428.05 199.347 430.418C195.861 428.232 189.065 429.507 185.405 431.329C179.654 434.061 176.169 438.979 173.555 444.808C170.766 450.819 169.895 456.648 166.758 462.295C166.235 463.388 165.538 464.481 165.887 465.756C166.061 466.302 166.235 466.666 166.584 467.031C167.629 468.67 169.198 469.763 170.766 470.856C175.646 474.135 180.874 476.685 186.625 478.142Z" fill="#59281B"/>
<path d="M257.222 518.291C246.165 496.241 228.631 488.366 221.449 487.184C227.14 491.122 232.289 504.641 233.644 511.203C237.032 522.097 244.376 544.121 246.653 545.066C248.929 546.012 254.647 527.61 257.222 518.291Z" fill="#DC685A"/>
<rect x="352.613" y="480.374" width="86.8758" height="52.8069" fill="#BACED8"/>
<rect x="388.387" y="512.74" width="18.7379" height="35.7724" fill="#D7E3E9"/>
<rect x="379.867" y="546.809" width="35.7724" height="3.40689" fill="#C4C4C4"/>
<path d="M420.397 548.159L420.397 548.159L419.545 549.01C419.402 549.153 419.359 549.368 419.436 549.555C419.514 549.742 419.696 549.864 419.898 549.864H433.526C433.687 549.864 433.838 549.787 433.932 549.656C434.026 549.526 434.051 549.358 434 549.206C433.65 548.153 432.063 546.177 428.514 545.467C426.682 545.1 424.944 545.485 423.533 546.094C422.124 546.702 421.007 547.548 420.397 548.159Z" fill="#BACED8" stroke="#BACED8" stroke-linejoin="round"/>
<circle cx="373.906" cy="365.392" r="0.851724" fill="#5E5256"/>
</svg>
