<svg width="94" height="68" viewBox="0 0 94 68" fill="none" xmlns="http://www.w3.org/2000/svg">
<rect width="94" height="68" fill="#17827B"/>
<path d="M26.9737 42.9245C26.7499 42.59 26.4917 42.2387 26.1991 41.8708C25.9065 41.5028 25.5966 41.1474 25.2696 40.8046C24.9511 40.4617 24.6198 40.1356 24.2755 39.8261C23.9312 39.5167 23.5912 39.2491 23.2556 39.0233V42.9245H21.6289V34.2316H23.2556V37.8191C23.5396 37.5432 23.8365 37.2505 24.1464 36.9411C24.4562 36.6233 24.7618 36.3055 25.063 35.9877C25.3729 35.6616 25.6655 35.348 25.9409 35.0469C26.2163 34.7459 26.4659 34.4741 26.6897 34.2316H28.6391C28.3551 34.5494 28.0539 34.8797 27.7354 35.2225C27.417 35.5654 27.0899 35.9125 26.7542 36.2637C26.4186 36.6065 26.0786 36.9494 25.7343 37.2923C25.3987 37.6351 25.0673 37.9613 24.7403 38.2707C25.1017 38.5383 25.4675 38.8519 25.8376 39.2115C26.2163 39.5627 26.5864 39.9432 26.9479 40.353C27.3094 40.7544 27.6536 41.1767 27.9807 41.6199C28.3164 42.0548 28.6219 42.4896 28.8973 42.9245H26.9737Z" fill="#FAFAFA"/>
<path d="M29.9607 36.5773C30.2619 36.4937 30.6535 36.4142 31.1355 36.3389C31.6175 36.2637 32.1511 36.226 32.7364 36.226C33.2872 36.226 33.7477 36.3013 34.1178 36.4518C34.4879 36.594 34.7805 36.7989 34.9957 37.0665C35.2194 37.3257 35.3744 37.6435 35.4604 38.0198C35.5551 38.3878 35.6024 38.7934 35.6024 39.2366V42.9245H34.0403V39.4749C34.0403 39.1237 34.0145 38.8268 33.9628 38.5843C33.9198 38.3334 33.8423 38.1327 33.7305 37.9822C33.6272 37.8233 33.4809 37.7104 33.2915 37.6435C33.1108 37.5682 32.887 37.5306 32.6202 37.5306C32.4222 37.5306 32.2157 37.5432 32.0005 37.5682C31.7853 37.5933 31.6261 37.6142 31.5228 37.631V42.9245H29.9607V36.5773Z" fill="#FAFAFA"/>
<path d="M43.6191 39.638C43.6191 40.1565 43.5417 40.629 43.3867 41.0554C43.2318 41.4819 43.0124 41.8457 42.7283 42.1468C42.4443 42.4478 42.1 42.682 41.6955 42.8492C41.2996 43.0165 40.8607 43.1001 40.3787 43.1001C39.8967 43.1001 39.4578 43.0165 39.0618 42.8492C38.6659 42.682 38.326 42.4478 38.0419 42.1468C37.7579 41.8457 37.5341 41.4819 37.3706 41.0554C37.2157 40.629 37.1382 40.1565 37.1382 39.638C37.1382 39.1195 37.2157 38.6512 37.3706 38.2331C37.5341 37.8066 37.7579 37.4428 38.0419 37.1418C38.3346 36.8407 38.6788 36.6107 39.0748 36.4518C39.4707 36.2846 39.9053 36.201 40.3787 36.201C40.8521 36.201 41.2867 36.2846 41.6826 36.4518C42.0871 36.6107 42.4314 36.8407 42.7154 37.1418C42.9994 37.4428 43.2189 37.8066 43.3738 38.2331C43.5374 38.6512 43.6191 39.1195 43.6191 39.638ZM42.0183 39.638C42.0183 38.9857 41.872 38.4714 41.5793 38.0951C41.2953 37.7104 40.8951 37.5181 40.3787 37.5181C39.8623 37.5181 39.4578 37.7104 39.1651 38.0951C38.8811 38.4714 38.7391 38.9857 38.7391 39.638C38.7391 40.2986 38.8811 40.8213 39.1651 41.206C39.4578 41.5906 39.8623 41.783 40.3787 41.783C40.8951 41.783 41.2953 41.5906 41.5793 41.206C41.872 40.8213 42.0183 40.2986 42.0183 39.638Z" fill="#FAFAFA"/>
<path d="M49.1177 38.7975C48.9198 39.5335 48.7046 40.2526 48.4722 40.9551C48.2485 41.6492 48.0247 42.3057 47.8009 42.9245H46.5228C46.3507 42.5398 46.1699 42.1008 45.9806 41.6074C45.7912 41.114 45.6019 40.5871 45.4125 40.0268C45.2232 39.4666 45.0338 38.877 44.8445 38.2582C44.6551 37.6393 44.4701 37.008 44.2893 36.364H45.9418C46.0193 36.7153 46.1097 37.0958 46.213 37.5055C46.3162 37.9069 46.4238 38.3209 46.5357 38.7474C46.6476 39.1655 46.7638 39.5753 46.8843 39.9767C47.0048 40.3781 47.1253 40.746 47.2458 41.0805C47.3749 40.6959 47.4997 40.2986 47.6202 39.8889C47.7493 39.4791 47.8698 39.0693 47.9817 38.6596C48.0935 38.2498 48.1968 37.8526 48.2915 37.4679C48.3948 37.0749 48.4851 36.7069 48.5626 36.364H49.7633C49.8407 36.7069 49.9268 37.0749 50.0215 37.4679C50.1161 37.8526 50.2151 38.2498 50.3184 38.6596C50.4303 39.0693 50.5465 39.4791 50.667 39.8889C50.7961 40.2986 50.9252 40.6959 51.0543 41.0805C51.1662 40.746 51.2823 40.3781 51.4028 39.9767C51.5233 39.5753 51.6395 39.1655 51.7514 38.7474C51.8719 38.3209 51.9838 37.9069 52.0871 37.5055C52.1904 37.0958 52.2807 36.7153 52.3582 36.364H53.972C53.7912 37.008 53.6062 37.6393 53.4168 38.2582C53.2275 38.877 53.0381 39.4666 52.8488 40.0268C52.6594 40.5871 52.4701 41.114 52.2807 41.6074C52.0914 42.1008 51.9063 42.5398 51.7256 42.9245H50.4604C50.2366 42.3057 50.0042 41.6492 49.7633 40.9551C49.5309 40.2526 49.3157 39.5335 49.1177 38.7975Z" fill="#FAFAFA"/>
<path d="M57.5129 43.0499C57.0481 43.0416 56.6608 42.9914 56.351 42.8994C56.0497 42.8074 55.8087 42.6778 55.628 42.5105C55.4473 42.3349 55.3181 42.1217 55.2407 41.8708C55.1718 41.6116 55.1374 41.3189 55.1374 40.9927V33.4413L56.6995 33.1904V40.7042C56.6995 40.8882 56.7124 41.0429 56.7383 41.1683C56.7727 41.2938 56.8286 41.4025 56.9061 41.4945C56.9836 41.5781 57.0868 41.645 57.2159 41.6952C57.3536 41.737 57.5258 41.7704 57.7323 41.7955L57.5129 43.0499Z" fill="#FAFAFA"/>
<path d="M58.6215 39.6756C58.6215 39.0986 58.7076 38.5927 58.8797 38.1578C59.0605 37.723 59.2972 37.3634 59.5898 37.079C59.8824 36.7863 60.2181 36.5689 60.5968 36.4268C60.9755 36.2762 61.3628 36.201 61.7587 36.201C62.6882 36.201 63.4112 36.4811 63.9276 37.0414C64.4526 37.6017 64.7151 38.438 64.7151 39.5502C64.7151 39.6338 64.7108 39.73 64.7022 39.8387C64.7022 39.939 64.6979 40.031 64.6893 40.1147H60.2353C60.2783 40.6415 60.4677 41.0513 60.8034 41.344C61.1476 41.6283 61.6425 41.7704 62.288 41.7704C62.6667 41.7704 63.011 41.737 63.3208 41.6701C63.6393 41.6032 63.8889 41.5321 64.0696 41.4568L64.2762 42.6987C64.1901 42.7405 64.0696 42.7865 63.9147 42.8367C63.7684 42.8785 63.5962 42.9161 63.3983 42.9496C63.2089 42.9914 63.0024 43.0248 62.7786 43.0499C62.5548 43.075 62.3267 43.0876 62.0944 43.0876C61.5005 43.0876 60.9841 43.0039 60.5451 42.8367C60.1062 42.6611 59.7447 42.4227 59.4607 42.1217C59.1767 41.8123 58.9658 41.4527 58.8281 41.0429C58.6904 40.6248 58.6215 40.169 58.6215 39.6756ZM63.153 38.9982C63.153 38.7892 63.1229 38.5927 63.0626 38.4087C63.0024 38.2163 62.912 38.0533 62.7915 37.9195C62.6796 37.7773 62.5376 37.6686 62.3655 37.5933C62.202 37.5097 62.004 37.4679 61.7716 37.4679C61.5306 37.4679 61.3198 37.5139 61.139 37.6059C60.9583 37.6895 60.8033 37.8024 60.6742 37.9446C60.5538 38.0867 60.4591 38.2498 60.3902 38.4338C60.3214 38.6177 60.274 38.8059 60.2482 38.9982H63.153Z" fill="#FAFAFA"/>
<path d="M67.5978 39.6254C67.5978 40.2944 67.7613 40.8213 68.0884 41.206C68.4155 41.5823 68.8673 41.7704 69.444 41.7704C69.6936 41.7704 69.9044 41.7621 70.0766 41.7454C70.2573 41.7203 70.4036 41.6952 70.5155 41.6701V37.9069C70.3778 37.8149 70.1928 37.7313 69.9604 37.6561C69.7366 37.5724 69.4956 37.5306 69.2374 37.5306C68.6694 37.5306 68.2519 37.7188 67.9851 38.0951C67.7269 38.4714 67.5978 38.9815 67.5978 39.6254ZM72.0776 42.7238C71.7678 42.8158 71.3762 42.8994 70.9028 42.9747C70.4381 43.0499 69.9475 43.0876 69.4311 43.0876C68.8974 43.0876 68.4198 43.0081 67.998 42.8492C67.5763 42.6903 67.2148 42.4645 66.9136 42.1718C66.621 41.8708 66.3929 41.5112 66.2293 41.0931C66.0744 40.6666 65.997 40.1899 65.997 39.6631C65.997 39.1446 66.0615 38.6763 66.1906 38.2582C66.3283 37.8317 66.5263 37.4679 66.7845 37.1668C67.0427 36.8658 67.3568 36.6358 67.7269 36.4769C68.097 36.3097 68.523 36.226 69.005 36.226C69.3321 36.226 69.6204 36.2637 69.87 36.3389C70.1196 36.4142 70.3348 36.4978 70.5155 36.5898V33.4413L72.0776 33.1904V42.7238Z" fill="#FAFAFA"/>
<path d="M75.2884 39.4749C75.2884 40.1188 75.4305 40.5913 75.7145 40.8924C76.0071 41.1851 76.3815 41.3314 76.8377 41.3314C77.0872 41.3314 77.3196 41.298 77.5348 41.2311C77.7586 41.1642 77.9393 41.0847 78.077 40.9927V37.5933C77.9651 37.5682 77.8274 37.5473 77.6639 37.5306C77.5004 37.5055 77.2938 37.493 77.0442 37.493C76.4762 37.493 76.0415 37.677 75.7403 38.0449C75.4391 38.4045 75.2884 38.8812 75.2884 39.4749ZM79.6392 42.2597C79.6392 43.305 79.3637 44.0702 78.8129 44.5552C78.2707 45.0402 77.4358 45.2827 76.3083 45.2827C75.8952 45.2827 75.4907 45.2493 75.0948 45.1824C74.7075 45.1155 74.3546 45.0277 74.0362 44.919L74.3202 43.6269C74.587 43.7357 74.8882 43.8235 75.2239 43.8904C75.5682 43.9573 75.9383 43.9907 76.3342 43.9907C76.9625 43.9907 77.41 43.8653 77.6768 43.6144C77.9436 43.3635 78.077 42.9914 78.077 42.498V42.2471C77.9221 42.3224 77.7155 42.3976 77.4573 42.4729C77.2077 42.5482 76.9194 42.5858 76.5924 42.5858C76.162 42.5858 75.7661 42.5189 75.4046 42.3851C75.0518 42.2513 74.7462 42.0548 74.488 41.7955C74.2384 41.5363 74.0405 41.2143 73.8941 40.8297C73.7564 40.4366 73.6876 39.985 73.6876 39.4749C73.6876 38.9982 73.7607 38.5592 73.9071 38.1578C74.062 37.7564 74.2814 37.4135 74.5655 37.1292C74.8581 36.8449 75.211 36.6233 75.6241 36.4644C76.0372 36.3055 76.5063 36.226 77.0313 36.226C77.5391 36.226 78.0211 36.2637 78.4772 36.3389C78.9334 36.4142 79.3207 36.4937 79.6392 36.5773V42.2597Z" fill="#FAFAFA"/>
<path d="M81.2521 39.6756C81.2521 39.0986 81.3382 38.5927 81.5103 38.1578C81.6911 37.723 81.9278 37.3634 82.2204 37.079C82.513 36.7863 82.8487 36.5689 83.2274 36.4268C83.6061 36.2762 83.9934 36.201 84.3893 36.201C85.3188 36.201 86.0418 36.4811 86.5582 37.0414C87.0832 37.6017 87.3457 38.438 87.3457 39.5502C87.3457 39.6338 87.3414 39.73 87.3328 39.8387C87.3328 39.939 87.3285 40.031 87.3199 40.1147H82.8659C82.9089 40.6415 83.0983 41.0513 83.4339 41.344C83.7782 41.6283 84.2731 41.7704 84.9186 41.7704C85.2973 41.7704 85.6416 41.737 85.9514 41.6701C86.2699 41.6032 86.5195 41.5321 86.7002 41.4568L86.9068 42.6987C86.8207 42.7405 86.7002 42.7865 86.5453 42.8367C86.399 42.8785 86.2268 42.9161 86.0289 42.9496C85.8395 42.9914 85.633 43.0248 85.4092 43.0499C85.1854 43.075 84.9573 43.0876 84.7249 43.0876C84.1311 43.0876 83.6147 43.0039 83.1757 42.8367C82.7368 42.6611 82.3753 42.4227 82.0913 42.1217C81.8073 41.8123 81.5964 41.4527 81.4587 41.0429C81.321 40.6248 81.2521 40.169 81.2521 39.6756ZM85.7836 38.9982C85.7836 38.7892 85.7535 38.5927 85.6932 38.4087C85.633 38.2163 85.5426 38.0533 85.4221 37.9195C85.3102 37.7773 85.1682 37.6686 84.9961 37.5933C84.8325 37.5097 84.6346 37.4679 84.4022 37.4679C84.1612 37.4679 83.9503 37.5139 83.7696 37.6059C83.5889 37.6895 83.4339 37.8024 83.3048 37.9446C83.1843 38.0867 83.0897 38.2498 83.0208 38.4338C82.952 38.6177 82.9046 38.8059 82.8788 38.9982H85.7836Z" fill="#FAFAFA"/>
<path d="M24.0947 48.7783C25.3858 48.7783 26.3712 49.0083 27.0512 49.4682C27.7397 49.9281 28.084 50.6306 28.084 51.5756C28.084 52.7547 27.4858 53.5533 26.2895 53.9715C26.453 54.1638 26.638 54.398 26.8446 54.6739C27.0512 54.9499 27.262 55.2509 27.4772 55.5771C27.6924 55.8949 27.8989 56.2252 28.0969 56.568C28.2948 56.9025 28.4713 57.2329 28.6262 57.559H26.8059C26.6423 57.258 26.4659 56.9569 26.2766 56.6559C26.0872 56.3464 25.8936 56.0496 25.6956 55.7652C25.5063 55.4725 25.3169 55.2008 25.1276 54.9499C24.9382 54.6906 24.7618 54.4607 24.5982 54.26C24.4777 54.2683 24.3745 54.2725 24.2884 54.2725C24.2023 54.2725 24.1206 54.2725 24.0431 54.2725H23.2556V57.559H21.6289V48.9915C22.0248 48.9079 22.4465 48.8536 22.8941 48.8285C23.3417 48.795 23.7419 48.7783 24.0947 48.7783ZM24.2109 50.1456C23.8667 50.1456 23.5482 50.1581 23.2556 50.1832V52.993H23.9656C24.3616 52.993 24.7101 52.9721 25.0114 52.9303C25.3126 52.8885 25.5622 52.8132 25.7602 52.7045C25.9667 52.5958 26.1216 52.4495 26.2249 52.2655C26.3282 52.0815 26.3798 51.8474 26.3798 51.563C26.3798 51.2954 26.3282 51.0696 26.2249 50.8857C26.1216 50.7017 25.971 50.5553 25.7731 50.4466C25.5837 50.3379 25.3556 50.2627 25.0888 50.2208C24.822 50.1707 24.5294 50.1456 24.2109 50.1456Z" fill="#FAFAFA"/>
<path d="M29.435 54.3101C29.435 53.7331 29.5211 53.2272 29.6932 52.7923C29.874 52.3575 30.1106 51.9979 30.4033 51.7136C30.6959 51.4209 31.0316 51.2034 31.4103 51.0613C31.789 50.9108 32.1763 50.8355 32.5722 50.8355C33.5017 50.8355 34.2247 51.1156 34.7411 51.6759C35.2661 52.2362 35.5286 53.0725 35.5286 54.1847C35.5286 54.2683 35.5243 54.3645 35.5157 54.4732C35.5157 54.5736 35.5114 54.6656 35.5028 54.7492H31.0488C31.0918 55.276 31.2812 55.6858 31.6168 55.9785C31.9611 56.2628 32.456 56.405 33.1015 56.405C33.4802 56.405 33.8245 56.3715 34.1343 56.3046C34.4528 56.2377 34.7024 56.1666 34.8831 56.0914L35.0897 57.3332C35.0036 57.375 34.8831 57.421 34.7282 57.4712C34.5819 57.513 34.4097 57.5506 34.2118 57.5841C34.0224 57.6259 33.8159 57.6594 33.5921 57.6845C33.3683 57.7095 33.1402 57.7221 32.9078 57.7221C32.314 57.7221 31.7976 57.6385 31.3586 57.4712C30.9197 57.2956 30.5582 57.0573 30.2742 56.7562C29.9901 56.4468 29.7793 56.0872 29.6416 55.6774C29.5039 55.2593 29.435 54.8035 29.435 54.3101ZM33.9665 53.6328C33.9665 53.4237 33.9363 53.2272 33.8761 53.0432C33.8159 52.8509 33.7255 52.6878 33.605 52.554C33.4931 52.4118 33.3511 52.3031 33.179 52.2279C33.0154 52.1442 32.8175 52.1024 32.5851 52.1024C32.3441 52.1024 32.1332 52.1484 31.9525 52.2404C31.7717 52.324 31.6168 52.4369 31.4877 52.5791C31.3672 52.7213 31.2726 52.8843 31.2037 53.0683C31.1348 53.2523 31.0875 53.4404 31.0617 53.6328H33.9665Z" fill="#FAFAFA"/>
<path d="M41.6647 54.3101C41.6647 53.6328 41.5054 53.1059 41.187 52.7296C40.8771 52.3533 40.3736 52.1651 39.6765 52.1651C39.5302 52.1651 39.3753 52.1735 39.2117 52.1902C39.0568 52.1986 38.9019 52.2237 38.747 52.2655V56.0161C38.8847 56.1081 39.0654 56.1959 39.2892 56.2795C39.5216 56.3548 39.7669 56.3924 40.0251 56.3924C40.5931 56.3924 41.0062 56.2043 41.2644 55.828C41.5312 55.4516 41.6647 54.9457 41.6647 54.3101ZM43.2655 54.2851C43.2655 54.7868 43.1967 55.2468 43.059 55.6649C42.9298 56.083 42.7405 56.4426 42.4909 56.7437C42.2413 57.0447 41.9272 57.2789 41.5485 57.4461C41.1784 57.6134 40.7566 57.697 40.2833 57.697C39.9648 57.697 39.6722 57.6594 39.4054 57.5841C39.1386 57.5088 38.9191 57.4252 38.747 57.3332V59.8796H37.1848V51.2118C37.5033 51.1282 37.8949 51.0487 38.3597 50.9735C38.8244 50.8982 39.315 50.8606 39.8314 50.8606C40.365 50.8606 40.8427 50.94 41.2644 51.0989C41.6862 51.2578 42.0434 51.4878 42.336 51.7888C42.6372 52.0815 42.8653 52.4411 43.0202 52.8676C43.1838 53.2857 43.2655 53.7582 43.2655 54.2851Z" fill="#FAFAFA"/>
<path d="M50.982 54.2725C50.982 54.791 50.9045 55.2635 50.7496 55.69C50.5946 56.1165 50.3752 56.4802 50.0912 56.7813C49.8071 57.0823 49.4629 57.3165 49.0583 57.4837C48.6624 57.651 48.2235 57.7346 47.7415 57.7346C47.2595 57.7346 46.8206 57.651 46.4247 57.4837C46.0288 57.3165 45.6888 57.0823 45.4048 56.7813C45.1207 56.4802 44.897 56.1165 44.7334 55.69C44.5785 55.2635 44.5011 54.791 44.5011 54.2725C44.5011 53.754 44.5785 53.2857 44.7334 52.8676C44.897 52.4411 45.1207 52.0773 45.4048 51.7763C45.6974 51.4752 46.0417 51.2453 46.4376 51.0864C46.8335 50.9191 47.2681 50.8355 47.7415 50.8355C48.2149 50.8355 48.6495 50.9191 49.0454 51.0864C49.4499 51.2453 49.7942 51.4752 50.0782 51.7763C50.3623 52.0773 50.5817 52.4411 50.7367 52.8676C50.9002 53.2857 50.982 53.754 50.982 54.2725ZM49.3811 54.2725C49.3811 53.6202 49.2348 53.1059 48.9421 52.7296C48.6581 52.3449 48.2579 52.1526 47.7415 52.1526C47.2251 52.1526 46.8206 52.3449 46.528 52.7296C46.2439 53.1059 46.1019 53.6202 46.1019 54.2725C46.1019 54.9332 46.2439 55.4558 46.528 55.8405C46.8206 56.2252 47.2251 56.4175 47.7415 56.4175C48.2579 56.4175 48.6581 56.2252 48.9421 55.8405C49.2348 55.4558 49.3811 54.9332 49.3811 54.2725Z" fill="#FAFAFA"/>
<path d="M54.2825 56.4677C54.6956 56.4677 54.9969 56.4217 55.1862 56.3297C55.3756 56.2294 55.4702 56.0621 55.4702 55.828C55.4702 55.6105 55.367 55.4307 55.1604 55.2886C54.9624 55.1464 54.6311 54.9917 54.1663 54.8244C53.8823 54.7241 53.6198 54.6196 53.3788 54.5108C53.1464 54.3938 52.9442 54.26 52.772 54.1094C52.5999 53.9589 52.4622 53.7791 52.3589 53.5701C52.2642 53.3526 52.2169 53.0892 52.2169 52.7798C52.2169 52.1777 52.445 51.7052 52.9011 51.3623C53.3573 51.0111 53.977 50.8355 54.7602 50.8355C55.1561 50.8355 55.5348 50.8731 55.8963 50.9484C56.2578 51.0153 56.5289 51.0822 56.7096 51.1491L56.4256 52.3784C56.2535 52.3031 56.034 52.2362 55.7672 52.1777C55.5004 52.1108 55.1905 52.0773 54.8377 52.0773C54.5192 52.0773 54.261 52.1317 54.063 52.2404C53.8651 52.3408 53.7661 52.4996 53.7661 52.7171C53.7661 52.8258 53.7833 52.922 53.8177 53.0056C53.8608 53.0892 53.9296 53.1687 54.0243 53.2439C54.119 53.3108 54.2438 53.3819 54.3987 53.4572C54.5536 53.5241 54.743 53.5951 54.9668 53.6704C55.3368 53.8042 55.651 53.938 55.9092 54.0718C56.1674 54.1973 56.3783 54.3436 56.5418 54.5108C56.7139 54.6697 56.8387 54.8537 56.9162 55.0628C56.9936 55.2718 57.0324 55.5227 57.0324 55.8154C57.0324 56.4426 56.7914 56.9193 56.3094 57.2454C55.836 57.5632 55.1561 57.7221 54.2696 57.7221C53.6757 57.7221 53.1981 57.6719 52.8366 57.5716C52.4751 57.4796 52.2212 57.4043 52.0749 57.3458L52.346 56.0788C52.5784 56.1708 52.8538 56.2586 53.1722 56.3423C53.4993 56.4259 53.8694 56.4677 54.2825 56.4677Z" fill="#FAFAFA"/>
<path d="M60.0667 57.559H58.5045V50.9986H60.0667V57.559ZM60.2345 49.0793C60.2345 49.3637 60.1398 49.5895 59.9505 49.7567C59.7611 49.924 59.5373 50.0076 59.2791 50.0076C59.0123 50.0076 58.7843 49.924 58.5949 49.7567C58.4056 49.5895 58.3109 49.3637 58.3109 49.0793C58.3109 48.7867 58.4056 48.5567 58.5949 48.3894C58.7843 48.2222 59.0123 48.1386 59.2791 48.1386C59.5373 48.1386 59.7611 48.2222 59.9505 48.3894C60.1398 48.5567 60.2345 48.7867 60.2345 49.0793Z" fill="#FAFAFA"/>
<path d="M61.9821 49.2675L63.5442 49.0166V50.9986H65.9455V52.2655H63.5442V54.9373C63.5442 55.4642 63.6303 55.8405 63.8024 56.0663C63.9746 56.2921 64.2672 56.405 64.6803 56.405C64.9643 56.405 65.2139 56.3757 65.4291 56.3172C65.6529 56.2586 65.8293 56.2043 65.9584 56.1541L66.2166 57.3583C66.0359 57.4336 65.7992 57.5088 65.5066 57.5841C65.2139 57.6677 64.8697 57.7095 64.4738 57.7095C63.9918 57.7095 63.5873 57.6468 63.2602 57.5214C62.9418 57.3959 62.6879 57.2161 62.4985 56.982C62.3092 56.7395 62.1758 56.451 62.0983 56.1165C62.0208 55.7736 61.9821 55.3847 61.9821 54.9499V49.2675Z" fill="#FAFAFA"/>
<path d="M73.4108 54.2725C73.4108 54.791 73.3334 55.2635 73.1784 55.69C73.0235 56.1165 72.804 56.4802 72.52 56.7813C72.236 57.0823 71.8917 57.3165 71.4872 57.4837C71.0913 57.651 70.6523 57.7346 70.1704 57.7346C69.6884 57.7346 69.2494 57.651 68.8535 57.4837C68.4576 57.3165 68.1177 57.0823 67.8336 56.7813C67.5496 56.4802 67.3258 56.1165 67.1623 55.69C67.0074 55.2635 66.9299 54.791 66.9299 54.2725C66.9299 53.754 67.0074 53.2857 67.1623 52.8676C67.3258 52.4411 67.5496 52.0773 67.8336 51.7763C68.1263 51.4752 68.4705 51.2453 68.8664 51.0864C69.2624 50.9191 69.697 50.8355 70.1704 50.8355C70.6437 50.8355 71.0784 50.9191 71.4743 51.0864C71.8788 51.2453 72.2231 51.4752 72.5071 51.7763C72.7911 52.0773 73.0106 52.4411 73.1655 52.8676C73.3291 53.2857 73.4108 53.754 73.4108 54.2725ZM71.81 54.2725C71.81 53.6202 71.6636 53.1059 71.371 52.7296C71.087 52.3449 70.6868 52.1526 70.1704 52.1526C69.654 52.1526 69.2494 52.3449 68.9568 52.7296C68.6728 53.1059 68.5308 53.6202 68.5308 54.2725C68.5308 54.9332 68.6728 55.4558 68.9568 55.8405C69.2494 56.2252 69.654 56.4175 70.1704 56.4175C70.6868 56.4175 71.087 56.2252 71.371 55.8405C71.6636 55.4558 71.81 54.9332 71.81 54.2725Z" fill="#FAFAFA"/>
<path d="M78.8674 52.3658C78.7383 52.324 78.5575 52.2822 78.3251 52.2404C78.1014 52.1902 77.8389 52.1651 77.5376 52.1651C77.3655 52.1651 77.1804 52.1819 76.9825 52.2153C76.7931 52.2488 76.6597 52.278 76.5823 52.3031V57.559H75.0201V51.3122C75.3214 51.2034 75.6958 51.1031 76.1433 51.0111C76.5995 50.9108 77.103 50.8606 77.6538 50.8606C77.7571 50.8606 77.8776 50.8689 78.0153 50.8857C78.153 50.894 78.2907 50.9108 78.4284 50.9358C78.5661 50.9526 78.6995 50.9777 78.8286 51.0111C78.9577 51.0362 79.061 51.0613 79.1385 51.0864L78.8674 52.3658Z" fill="#FAFAFA"/>
<path d="M85.9667 50.9986C85.2695 53.4906 84.4605 55.7485 83.5395 57.7723C83.3674 58.1486 83.191 58.4705 83.0102 58.7381C82.8295 59.0057 82.6272 59.2273 82.4034 59.403C82.1797 59.5786 81.9301 59.704 81.6547 59.7793C81.3792 59.8629 81.0608 59.9047 80.6993 59.9047C80.4583 59.9047 80.2173 59.8796 79.9763 59.8295C79.744 59.7793 79.5675 59.7249 79.447 59.6664L79.731 58.4496C80.0409 58.5667 80.3464 58.6252 80.6477 58.6252C81.0522 58.6252 81.3663 58.5291 81.5901 58.3367C81.8225 58.1528 82.0247 57.8642 82.1969 57.4712C81.7063 56.5513 81.2329 55.5478 80.7768 54.4607C80.3292 53.3735 79.929 52.2195 79.5761 50.9986H81.2415C81.3276 51.3498 81.4309 51.7303 81.5514 52.1401C81.6805 52.5498 81.8182 52.9679 81.9645 53.3944C82.1108 53.8126 82.2657 54.2307 82.4293 54.6488C82.5928 55.067 82.7563 55.4558 82.9199 55.8154C83.1953 55.0711 83.4535 54.2809 83.6945 53.4446C83.9354 52.6 84.1549 51.7846 84.3529 50.9986H85.9667Z" fill="#FAFAFA"/>
<rect x="21.6289" width="1.66372" height="68" fill="#FAFAFA"/>
</svg>
